<?xml version="1.0" encoding="UTF-8" standalone="no"?>
<svg
   version="1.1"
   id="Layer_1"
   x="0px"
   y="0px"
   width="100%"
   viewBox="0 0 731 731"
   enable-background="new 0 0 731 731"
   xml:space="preserve"
   sodipodi:docname="logo.svg"
   inkscape:version="1.3.2 (091e20e, 2023-11-25)"
   inkscape:export-filename="logo.png"
   inkscape:export-xdpi="96"
   inkscape:export-ydpi="96"
   xmlns:inkscape="http://www.inkscape.org/namespaces/inkscape"
   xmlns:sodipodi="http://sodipodi.sourceforge.net/DTD/sodipodi-0.dtd"
   xmlns="http://www.w3.org/2000/svg"
   xmlns:svg="http://www.w3.org/2000/svg"><defs
   id="defs141" /><sodipodi:namedview
   id="namedview141"
   pagecolor="#ffffff"
   bordercolor="#000000"
   borderopacity="0.25"
   inkscape:showpageshadow="2"
   inkscape:pageopacity="0.0"
   inkscape:pagecheckerboard="0"
   inkscape:deskcolor="#d1d1d1"
   inkscape:zoom="1.7337408"
   inkscape:cx="438.64688"
   inkscape:cy="367.41363"
   inkscape:window-width="1392"
   inkscape:window-height="1021"
   inkscape:window-x="3520"
   inkscape:window-y="31"
   inkscape:window-maximized="0"
   inkscape:current-layer="Layer_1" />




<path
   fill="#064F27"
   opacity="1.000000"
   stroke="none"
   d=" M7.002246,515.484741   C8.592456,511.928711 10.176993,508.839935 11.904520,505.443604   C13.162221,504.452698 14.276932,503.769348 16.039093,502.808655   C27.207426,500.301666 27.207426,500.301666 26.568897,490.905945   C26.602638,488.253174 26.636379,485.600372 26.686850,482.117249   C26.667217,476.170227 26.630859,471.053619 26.594498,465.936981   C26.663443,458.440277 26.790764,450.943542 26.792263,443.446838   C26.806660,371.459320 26.801365,299.471802 26.793921,227.484268   C26.793592,224.318878 26.718008,221.153473 26.697515,217.056274   C26.381472,210.604935 26.045391,205.085419 25.709311,199.565903   C25.866438,199.330887 25.927305,199.073151 26.036367,198.309586   C27.758905,185.570709 32.802410,174.806641 40.273521,165.087555   C41.410435,163.924652 42.547340,162.761734 44.162994,161.227081   C46.105167,159.576126 47.568592,158.296921 49.032013,157.017715   C49.032017,157.017715 48.994732,156.991531 49.280903,156.909668   C50.094814,156.268845 50.622559,155.709885 51.150299,155.150909   C51.150295,155.150909 51.200485,155.303345 51.615677,155.213318   C59.021229,152.397781 66.011581,149.672287 73.001938,146.946808   C73.440712,146.917145 73.879486,146.887497 75.020882,146.865143   C79.295708,146.508545 82.867912,146.144623 86.440109,145.780701   C86.676216,145.908752 86.925667,145.945007 87.578049,145.988037   C88.667847,146.260040 89.368050,146.433456 90.068245,146.606857   C115.380798,146.634155 140.693359,146.661453 166.824448,146.678925   C168.118179,146.646439 168.593384,146.623795 169.068573,146.601166   C171.407059,146.629303 173.745544,146.657440 176.835251,146.686340   C178.423264,146.607559 179.260040,146.528061 180.096832,146.448547   C183.449020,146.497971 186.801208,146.547409 190.798950,146.592712   C191.986572,146.594666 192.528625,146.600769 193.070679,146.606873   C196.057541,146.574203 199.044388,146.541519 202.811249,146.538666   C205.082169,146.583176 206.573074,146.597855 208.063980,146.612549   C209.416153,146.635239 210.768311,146.657913 212.881348,146.676453   C214.118103,146.651260 214.593979,146.630203 215.069870,146.609131   C219.386948,146.633835 223.704010,146.658524 228.914932,146.701202   C231.560608,146.682755 233.312439,146.646347 235.064270,146.609924   C235.479492,146.626190 235.894699,146.642487 237.053802,146.707703   C239.540955,146.766312 241.284195,146.776001 243.027451,146.785690   C243.458969,146.831345 243.890503,146.876984 244.949783,147.159576   C253.143158,150.656830 260.708771,153.917145 268.274384,157.177460   C268.274384,157.177460 268.486725,157.373276 268.774048,157.650757   C270.026245,158.633499 270.991119,159.338760 271.956024,160.044006   C271.956024,160.044006 272.002655,160.011337 272.141754,160.293518   C273.508301,161.744431 274.735779,162.913132 275.963257,164.081833   C276.111481,164.343033 276.298553,164.572601 276.820312,165.228500   C281.099670,173.458664 285.083130,181.230865 289.066650,189.003052   C289.095032,189.434067 289.123413,189.865097 289.149872,191.011856   C289.500824,193.492691 289.853699,195.257782 290.206543,197.022888   C290.183411,215.361389 290.160248,233.699875 290.140198,252.847229   C290.162231,254.114090 290.181183,254.572113 290.200134,255.030136   C290.182007,256.718750 290.163849,258.407379 290.331238,260.852753   C293.353180,262.004608 296.189606,262.399689 299.026062,262.794769   C319.030243,262.816132 339.034454,262.837494 359.847412,262.855347   C361.114044,262.832642 361.571930,262.813446 362.029816,262.794250   C367.034515,262.853882 372.039185,262.913544 377.863464,263.171936   C382.468292,263.840729 386.253540,264.310822 390.038818,264.780884   C390.469940,264.821960 390.901031,264.863068 391.963013,265.135864   C403.606140,270.017853 414.618408,274.668152 425.630707,279.318451   C425.630707,279.318451 425.666504,279.434784 425.891235,279.673645   C427.079651,280.616455 428.043274,281.320404 429.006927,282.024384   C429.473877,282.300354 429.940857,282.576355 430.851501,283.217468   C436.366852,288.143280 441.438507,292.703918 446.510162,297.264526   C446.510162,297.264526 446.687958,297.322479 446.842438,297.544098   C447.600433,298.236786 448.203979,298.707825 448.807495,299.178894   C448.807495,299.178894 448.707367,299.221497 448.835693,299.570282   C450.300446,301.311707 451.636871,302.704346 452.973297,304.096985   C453.120087,304.355713 453.307159,304.580994 453.838501,305.192993   C455.030365,306.480042 455.918213,307.346954 456.806061,308.213867   C456.806061,308.213867 456.875275,308.149384 456.935425,308.427307   C457.361908,309.127808 457.728271,309.550385 458.094635,309.972961   C460.539856,312.524750 462.985107,315.076538 465.873993,318.088989   C467.752899,319.786743 469.188202,321.023834 470.623505,322.260925   C470.623505,322.260925 470.635742,322.377869 470.816101,322.662628   C472.655182,324.664154 474.313934,326.380890 475.972687,328.097626   C477.053497,329.290619 478.134308,330.483612 479.602295,332.147034   C480.625122,333.128723 481.260773,333.639984 481.896423,334.151245   C481.896423,334.151276 481.874481,334.088745 481.944244,334.396240   C482.690857,335.445618 483.367676,336.187531 484.044525,336.929443   C484.044525,336.929443 484.010529,336.978180 484.190704,337.231812   C485.254974,338.315765 486.139069,339.146149 487.023163,339.976501   C487.841827,340.869659 488.660522,341.762817 489.890381,343.089905   C491.198883,344.365295 492.096191,345.206726 492.993500,346.048187   C494.462952,347.584290 495.932373,349.120392 497.830200,351.100891   C499.167358,352.386169 500.076111,353.227112 500.984863,354.068054   C501.137695,354.332397 501.331940,354.561676 501.936340,355.166321   C516.644470,369.741974 533.651978,377.695770 554.032898,377.795837   C554.774231,377.840210 555.515503,377.884552 556.988220,378.112244   C561.153198,378.186676 564.586853,378.077789 568.020447,377.968903   C568.455200,377.935425 568.889893,377.901978 570.065308,377.869324   C583.075195,376.768951 593.168518,371.522766 601.021484,362.008728   C601.021484,362.008728 600.994995,361.995209 601.285400,361.827332   C602.339172,360.799408 603.161682,359.984436 603.857239,359.072571   C613.862427,345.955688 615.888245,330.851746 614.799744,314.977814   C614.819580,313.600861 614.839478,312.223938 614.875793,310.004272   C614.860291,307.433258 614.828308,305.704926 614.796265,303.976593   C614.809265,303.542694 614.822327,303.108795 614.864014,301.891022   C614.860962,297.729858 614.829346,294.352570 614.797668,290.975281   C614.810486,290.541718 614.823303,290.108185 614.859131,288.945740   C614.853821,287.136047 614.825378,286.055206 614.796997,284.974396   C614.817993,281.958527 614.839050,278.942688 614.875854,275.017944   C614.912048,271.959473 615.245422,269.750305 614.850769,267.679871   C614.553101,266.118439 613.671387,263.933533 612.451355,263.403625   C605.230652,260.267426 597.835144,257.533722 590.498474,254.664597   C590.498474,254.664597 590.345764,254.606384 590.171570,254.372498   C589.004883,253.396057 588.012329,252.653473 587.019836,251.910889   C584.888794,249.723541 582.757751,247.536194 580.242065,244.837219   C575.224304,235.548431 570.591064,226.771271 565.957825,217.994125   C565.923523,217.563034 565.889221,217.131943 565.827515,216.051941   C565.517761,214.598282 565.235352,213.793518 564.953003,212.988754   C564.922729,212.552063 564.892517,212.115372 564.873291,210.883301   C564.907593,204.263809 564.848022,198.437683 564.986816,192.616318   C565.064758,189.345383 563.966125,187.611115 560.577454,186.543198   C553.760315,184.394821 550.433289,179.645569 551.166931,172.556046   C551.539795,168.952179 553.702148,165.533493 555.055603,162.031097   C555.055603,162.031097 555.005859,162.005249 555.309326,161.937134   C556.423218,161.247314 557.233704,160.625626 558.044189,160.003937   C558.044189,160.003937 558.502258,159.891632 559.056030,159.842163   C560.412231,159.508972 561.214600,159.225266 562.017029,158.941574   C565.364014,158.915482 568.710999,158.889404 572.903687,158.862015   C577.391357,159.127609 578.163574,157.019516 577.797485,153.969406   C577.858398,151.613144 577.919373,149.256897 578.154541,146.081467   C578.394592,137.414001 578.460388,129.565689 578.526184,121.717392   C578.593933,121.340950 578.661682,120.964508 578.782104,119.956100   C579.915283,115.575287 580.995789,111.826447 582.366577,107.886848   C587.513550,103.484550 593.071106,102.756546 598.815430,105.152893   C604.982849,107.725708 606.520386,113.368324 606.923767,119.373772   C607.144836,122.665024 606.882385,125.986511 607.037903,129.284943   C607.254211,133.873016 607.658081,138.452255 607.981689,143.035278   C608.032776,145.051254 608.083801,147.067215 608.123718,149.955170   C608.711853,153.830627 605.959351,158.490280 612.043884,158.783417   C622.704224,158.807190 633.364502,158.830948 644.924438,158.866669   C652.574768,158.909790 652.899048,158.622116 652.955994,151.946289   C652.978699,149.289246 652.849487,146.630905 652.789368,143.973145   C652.851257,140.955658 652.913086,137.938187 653.157959,134.093689   C653.826843,126.160522 654.312744,119.054367 654.798706,111.948219   C654.798706,111.948219 654.927429,111.524925 655.243896,111.094131   C658.210510,106.779091 661.642273,104.399796 666.540710,103.997673   C672.772949,103.486053 676.827209,106.740341 680.411438,111.132416   C680.411438,111.132416 680.459229,111.397514 680.633057,111.800446   C681.208313,113.476257 681.609680,114.749130 682.011047,116.022011   C682.055359,118.049934 682.099731,120.077858 682.129333,123.008377   C682.414062,134.116989 682.598145,144.329178 683.142151,154.522171   C683.220398,155.986771 685.034668,157.358719 686.045532,158.773544   C690.384827,158.820435 694.724121,158.867340 699.757019,159.077332   C700.985718,159.416611 701.520752,159.592789 702.055786,159.768967   C703.159485,160.416931 704.263245,161.064896 705.815796,162.178558   C713.151367,173.705704 710.899414,181.181412 699.289917,186.940948   C697.793274,187.683456 696.291077,190.013260 696.194153,191.688889   C695.861206,197.448105 696.151428,203.243347 696.204224,209.024857   C696.162781,209.762619 696.121338,210.500381 695.868164,211.929413   C693.560608,223.335388 688.803101,232.898529 682.950989,241.988098   C682.404907,242.496719 681.858826,243.005371 680.918823,243.936829   C679.969788,245.206924 679.414673,246.054230 678.859619,246.901535   C678.859619,246.901535 678.893738,246.950226 678.639587,247.099731   C677.507263,248.403595 676.629089,249.557968 675.750854,250.712341   C675.750854,250.712341 675.552063,250.604218 675.163086,250.765137   C666.831177,256.833069 658.387329,261.563385 648.470947,263.496033   C647.046509,263.773651 645.201965,266.853851 645.187317,268.650360   C645.015015,289.786377 645.154968,310.924896 645.212646,332.062775   C645.195862,332.790222 645.179077,333.517670 645.023438,334.977417   C642.722351,350.186066 637.705200,363.597473 629.871094,375.958130   C629.617493,376.121246 629.403564,376.325836 628.849854,376.945496   C627.626587,378.542358 626.782776,379.765686 625.938965,380.988953   C625.071533,381.823181 624.204224,382.657440 622.899414,383.931702   C620.468445,386.342316 618.309692,388.174408 616.517517,390.313690   C613.253418,394.210083 613.786133,396.442474 618.139404,398.908051   C623.442749,401.911621 628.709534,404.979675 633.992126,408.019836   C633.992126,408.019836 634.004883,407.994965 634.181274,408.267334   C635.825195,409.437073 637.292725,410.334412 638.760315,411.231750   C638.760315,411.231750 638.687439,411.288788 638.830078,411.603302   C639.863831,412.697479 640.755066,413.477142 641.646240,414.256805   C641.646240,414.256805 641.772339,414.304565 641.889587,414.528351   C642.610229,415.226685 643.213684,415.701233 643.817078,416.175781   C643.817078,416.175781 643.693848,416.227570 643.833984,416.585541   C645.316467,418.639191 646.658875,420.334869 648.001282,422.030518   C648.487305,422.588257 648.973328,423.145996 649.786438,424.202576   C656.440796,435.023682 660.583496,446.192078 663.018982,458.021698   C663.055298,458.456573 663.091614,458.891449 663.119995,460.120117   C663.084351,471.046204 662.720459,481.191833 663.121643,491.307159   C663.542053,501.906189 662.037415,511.812653 655.719788,520.611267   C655.719788,520.611267 655.685852,520.744263 655.450073,520.850281   C654.466614,521.633301 653.718872,522.310303 652.971191,522.987305   C652.971191,522.987305 653.005554,523.002441 652.697815,523.159851   C646.920654,525.902771 641.451294,528.488220 635.981873,531.073730   C635.546082,531.096619 635.110229,531.119446 633.880127,531.127197   C623.604065,531.086182 614.122375,531.056641 604.640686,531.036743   C602.015930,531.031250 599.496826,531.243530 599.142151,534.662415   C597.370972,551.733704 590.030823,566.442688 579.942139,579.988953   C579.677124,580.144104 579.446960,580.340210 578.844360,580.949707   C575.609192,584.213013 572.781372,587.103760 569.953491,589.994446   C569.400208,590.488892 568.846924,590.983337 567.810364,591.821655   C556.635315,600.069214 544.732849,605.425720 531.542603,608.987549   C526.398987,609.655945 521.682373,610.308167 516.511536,610.981445   C512.717102,610.984985 509.377014,610.967407 505.729492,610.741211   C503.945831,610.418457 502.469543,610.304260 500.664886,610.149414   C499.897156,610.070557 499.457825,610.032471 498.698486,609.792725   C484.420868,607.230469 471.944427,601.245728 460.018311,593.914246   C458.841461,592.728455 457.664612,591.542725 456.027954,589.931213   C453.724152,587.984070 451.880188,586.462646 450.036194,584.941223   C450.036194,584.941223 450.012543,584.992920 449.934753,584.679810   C448.894165,583.259460 447.931366,582.152344 446.968567,581.045166   C446.968567,581.045166 447.002716,581.004639 446.840332,580.744751   C445.795959,579.642944 444.913940,578.801086 444.031952,577.959229   C443.814178,577.449829 443.596405,576.940491 443.043518,575.913086   C434.315613,563.459900 429.264038,550.191162 427.221100,535.798645   C426.717346,532.249756 425.072021,531.004578 421.640320,531.009827   C386.327423,531.063416 351.014252,531.083862 315.701538,530.987244   C311.241974,530.975037 310.192993,532.996155 309.916687,537.065247   C309.563354,542.268799 308.295959,547.410278 307.387421,552.608337   C307.352386,552.638123 307.349487,552.730103 307.106140,552.879517   C306.153290,553.874756 305.443787,554.720581 304.734283,555.566406   C304.734283,555.566406 304.653900,555.629517 304.333618,555.757324   C297.991272,557.019714 291.969238,558.154358 285.947205,559.288940   C266.723236,559.548340 247.499268,559.807800 227.672394,559.963806   C226.360214,559.672852 225.650925,559.485291 224.941635,559.297729   C209.326172,559.566345 193.710144,560.082764 178.095383,560.046936   C153.363617,559.990173 128.632706,559.563843 103.178101,559.283447   C101.617905,559.278015 100.781067,559.282959 99.944221,559.287842   C91.126122,559.469238 82.308426,559.754517 73.489754,559.788757   C69.008133,559.806152 64.521378,559.128540 60.042870,559.190857   C50.059654,559.329956 40.080166,559.736572 29.446632,559.954224   C28.278641,559.696594 27.763176,559.518921 27.247707,559.341248   C17.812971,559.458679 11.050590,555.464539 7.293853,546.251953   C7.050311,535.978149 7.023443,525.965149 7.002246,515.484741  M173.500000,500.007202   C199.325439,500.007599 225.150894,500.010834 250.976334,500.006561   C258.938354,500.005249 258.970642,499.995819 258.971527,492.230011   C258.982544,396.758545 258.994232,301.287079 258.941406,205.815659   C258.939575,202.523727 258.539520,199.174210 257.855194,195.951309   C255.806519,186.302689 246.118225,177.957565 237.187790,177.951004   C185.706390,177.913116 134.225006,177.870529 82.743607,177.875122   C68.672768,177.876389 57.998871,188.600403 57.994217,202.776596   C57.962482,299.414398 57.966705,396.052216 57.972012,492.690002   C57.972385,499.501984 58.506042,499.999359 65.531960,500.001404   C101.187973,500.011658 136.843994,500.006714 173.500000,500.007202  M609.683899,428.787323   C608.263245,427.932281 606.920715,426.894073 605.410217,426.249695   C583.714417,416.994385 561.168640,410.750977 537.905762,406.875610   C522.164368,404.253265 506.751862,399.334564 494.799683,388.832275   C476.463837,372.720612 459.524963,355.015137 442.060669,337.917175   C432.597473,328.652496 423.642761,318.833984 413.797607,310.002197   C400.354401,297.942749 383.778992,293.396881 366.088440,293.158997   C342.764282,292.845398 319.431580,293.202545 296.105316,292.980316   C291.280884,292.934357 289.878632,294.417603 289.888702,299.205658   C290.025146,364.191528 290.024628,429.177856 289.893127,494.163727   C289.883698,498.824310 291.369659,500.109070 295.913177,500.093567   C338.736877,499.947327 381.561432,499.960541 424.385315,500.079041   C428.169861,500.089508 429.937805,498.805634 431.238861,495.271973   C438.953461,474.319641 452.612305,458.461853 472.413666,447.939178   C486.616638,440.391571 501.822662,438.380829 517.657104,438.912750   C531.566040,439.379974 544.391541,443.323456 556.436279,450.012268   C575.239319,460.454132 588.005737,476.025635 595.133789,496.259979   C596.088196,498.969360 597.661987,500.133972 600.678162,500.064514   C608.838745,499.876648 617.006592,500.018677 625.171448,499.996704   C631.079407,499.980804 632.916382,498.236023 632.975891,492.341431   C633.054993,484.510559 633.498962,476.639221 632.893494,468.854675   C631.598633,452.204926 625.666138,437.912170 609.683899,428.787323  M480.000031,562.536499   C492.630219,572.854431 506.924469,577.180786 523.069519,573.960022   C552.984253,567.992249 569.119629,539.264038 562.498291,513.201355   C552.840576,475.187164 506.576996,461.892883 477.968262,488.651978   C458.025574,507.305328 456.712433,542.067749 480.000031,562.536499  z"
   id="path5" />







































































<path
   fill="#090908"
   opacity="1.000000"
   stroke="none"
   d=" M587.164062,252.195190   C588.012329,252.653473 589.004883,253.396057 590.113892,254.430420   C589.256348,253.974640 588.282349,253.227066 587.164062,252.195190  z"
   id="path77" />





















<path
   fill="#090908"
   opacity="1.000000"
   stroke="none"
   d=" M589.538452,262.479919   C589.544739,262.500610 589.532227,262.459259 589.538452,262.479919  z"
   id="path99" />
<path
   fill="#080908"
   opacity="1.000000"
   stroke="none"
   d=" M653.007629,267.498352   C653.003479,267.481812 653.011780,267.514893 653.007629,267.498352  z"
   id="path100" />



<path
   fill="#090908"
   opacity="1.000000"
   stroke="none"
   d=" M563.487000,217.497681   C563.489868,217.514282 563.484131,217.481079 563.487000,217.497681  z"
   id="path104" />
<path
   fill="#090808"
   opacity="1.000000"
   stroke="none"
   d=" M30.497581,169.512787   C30.514288,169.509842 30.480875,169.515747 30.497581,169.512787  z"
   id="path105" />
<path
   fill="#090808"
   opacity="1.000000"
   stroke="none"
   d=" M48.504463,153.486069   C48.487511,153.488663 48.521416,153.483475 48.504463,153.486069  z"
   id="path106" />
<path
   fill="#090908"
   opacity="1.000000"
   stroke="none"
   d=" M592.512756,263.502411   C592.509827,263.485748 592.515686,263.519073 592.512756,263.502411  z"
   id="path107" />
<path
   fill="#080908"
   opacity="1.000000"
   stroke="none"
   d=" M647.002686,331.997620   C647.005371,331.995270 647.019531,332.036743 647.007629,332.020752   C646.995728,332.004730 647.000000,332.000000 647.002686,331.997620  z"
   id="path108" />


<path
   fill="#080908"
   opacity="1.000000"
   stroke="none"
   d=" M649.484253,355.497559   C649.487183,355.514313 649.481384,355.480835 649.484253,355.497559  z"
   id="path111" />
<path
   fill="#080908"
   opacity="1.000000"
   stroke="none"
   d=" M669.504150,498.485687   C669.487488,498.488159 669.520874,498.483215 669.504150,498.485687  z"
   id="path112" />
<path
   fill="#090908"
   opacity="1.000000"
   stroke="none"
   d=" M520.502258,361.487061   C520.485657,361.489960 520.518860,361.484192 520.502258,361.487061  z"
   id="path113" />
<path
   fill="#090908"
   opacity="1.000000"
   stroke="none"
   d=" M541.485718,367.498535   C541.488281,367.515503 541.483093,367.481567 541.485718,367.498535  z"
   id="path114" />
<path
   fill="#090908"
   opacity="1.000000"
   stroke="none"
   d=" M539.504517,368.486145   C539.487549,368.488770 539.521423,368.483521 539.504517,368.486145  z"
   id="path115" />
<path
   fill="#000000"
   opacity="1.000000"
   stroke="none"
   d=" M15.998810,559.998657   C15.997620,559.997375 16.035713,559.979004 16.019085,559.990601   C16.002455,560.002258 16.000000,560.000000 15.998810,559.998657  z"
   id="path116" />
<path
   fill="#77BA4E"
   opacity="1.000000"
   stroke="none"
   d=" M173.000000,500.007172   C136.843994,500.006714 101.187973,500.011658 65.531960,500.001404   C58.506042,499.999359 57.972385,499.501984 57.972012,492.690002   C57.966705,396.052216 57.962482,299.414398 57.994217,202.776596   C57.998871,188.600403 68.672768,177.876389 82.743607,177.875122   C134.225006,177.870529 185.706390,177.913116 237.187790,177.951004   C246.118225,177.957565 255.806519,186.302689 257.855194,195.951309   C258.539520,199.174210 258.939575,202.523727 258.941406,205.815659   C258.994232,301.287079 258.982544,396.758545 258.971527,492.230011   C258.970642,499.995819 258.938354,500.005249 250.976334,500.006561   C225.150894,500.010834 199.325439,500.007599 173.000000,500.007172  M138.717300,414.321930   C147.120743,401.622131 155.515747,388.916718 163.929779,376.223938   C174.353012,360.500275 184.803207,344.794434 195.219467,329.066132   C200.337204,321.338501 205.699463,313.747864 210.328369,305.735474   C211.861603,303.081512 212.195358,299.143433 211.548920,296.119202   C211.298706,294.948700 206.824722,294.155914 204.254745,294.098541   C193.943436,293.868500 183.623703,294.051361 173.308121,293.962250   C168.688400,293.922363 166.605118,291.565674 167.272003,287.542633   C170.807434,266.215179 174.454712,244.905121 177.782288,223.545258   C178.470535,219.127274 177.967422,214.523697 177.606308,209.475220   C175.047501,210.240143 172.488693,211.005081 169.370285,212.174957   C164.644791,218.972122 159.801270,225.690704 155.214279,232.580078   C135.669235,261.935608 116.145523,291.305908 96.821350,320.806641   C95.479118,322.855682 94.713089,326.593079 95.703308,328.487061   C96.676079,330.347687 100.201591,331.729156 102.657120,331.810883   C113.304115,332.165070 123.969513,331.951904 134.628159,331.975464   C140.852997,331.989197 141.872650,332.853119 140.916000,338.895508   C137.583618,359.943329 133.946396,380.942902 130.624252,401.992279   C129.949997,406.264343 130.143433,410.673340 130.301331,415.626343   C132.935394,415.366852 135.569443,415.107361 138.717300,414.321930  z"
   id="path117" />
<path
   fill="#77BA4E"
   opacity="1.000000"
   stroke="none"
   d=" M610.023438,428.926941   C625.666138,437.912170 631.598633,452.204926 632.893494,468.854675   C633.498962,476.639221 633.054993,484.510559 632.975891,492.341431   C632.916382,498.236023 631.079407,499.980804 625.171448,499.996704   C617.006592,500.018677 608.838745,499.876648 600.678162,500.064514   C597.661987,500.133972 596.088196,498.969360 595.133789,496.259979   C588.005737,476.025635 575.239319,460.454132 556.436279,450.012268   C544.391541,443.323456 531.566040,439.379974 517.657104,438.912750   C501.822662,438.380829 486.616638,440.391571 472.413666,447.939178   C452.612305,458.461853 438.953461,474.319641 431.238861,495.271973   C429.937805,498.805634 428.169861,500.089508 424.385315,500.079041   C381.561432,499.960541 338.736877,499.947327 295.913177,500.093567   C291.369659,500.109070 289.883698,498.824310 289.893127,494.163727   C290.024628,429.177856 290.025146,364.191528 289.888702,299.205658   C289.878632,294.417603 291.280884,292.934357 296.105316,292.980316   C319.431580,293.202545 342.764282,292.845398 366.088440,293.158997   C383.778992,293.396881 400.354401,297.942749 413.797607,310.002197   C423.642761,318.833984 432.597473,328.652496 442.060669,337.917175   C459.524963,355.015137 476.463837,372.720612 494.799683,388.832275   C506.751862,399.334564 522.164368,404.253265 537.905762,406.875610   C561.168640,410.750977 583.714417,416.994385 605.410217,426.249695   C606.920715,426.894073 608.263245,427.932281 610.023438,428.926941  z"
   id="path118" />
<path
   fill="#76BA4E"
   opacity="1.000000"
   stroke="none"
   d=" M479.745544,562.284607   C456.712433,542.067749 458.025574,507.305328 477.968262,488.651978   C506.576996,461.892883 552.840576,475.187164 562.498291,513.201355   C569.119629,539.264038 552.984253,567.992249 523.069519,573.960022   C506.924469,577.180786 492.630219,572.854431 479.745544,562.284607  z"
   id="path119" />



<path
   fill="#000000"
   opacity="1.000000"
   stroke="none"
   d=" M428.502197,553.486450   C428.485901,553.489136 428.518494,553.483826 428.502197,553.486450  z"
   id="path123" />
<path
   fill="#000000"
   opacity="1.000000"
   stroke="none"
   d=" M313.000610,549.000732   C313.001221,549.001526 312.964447,549.020630 312.981384,549.009399   C312.998291,548.998169 313.000000,549.000000 313.000610,549.000732  z"
   id="path124" />
<path
   fill="#000000"
   opacity="1.000000"
   stroke="none"
   d=" M317.496155,540.515991   C317.512634,540.513550 317.479645,540.518494 317.496155,540.515991  z"
   id="path125" />





<path
   fill="#000000"
   opacity="1.000000"
   stroke="none"
   d=" M33.504036,169.484100   C33.487411,169.486603 33.520660,169.481583 33.504036,169.484100  z"
   id="path131" />







<path
   fill="#064F27"
   opacity="1.000000"
   stroke="none"
   d=" M178.013382,210.005646   C177.967422,214.523697 178.470535,219.127274 177.782288,223.545258   C174.454712,244.905121 170.807434,266.215179 167.272003,287.542633   C166.605118,291.565674 168.688400,293.922363 173.308121,293.962250   C183.623703,294.051361 193.943436,293.868500 204.254745,294.098541   C206.824722,294.155914 211.298706,294.948700 211.548920,296.119202   C212.195358,299.143433 211.861603,303.081512 210.328369,305.735474   C205.699463,313.747864 200.337204,321.338501 195.219467,329.066132   C184.803207,344.794434 174.353012,360.500275 163.929779,376.223938   C155.515747,388.916718 147.120743,401.622131 138.387573,414.225342   C137.364075,411.118134 136.081894,410.176758 133.503265,412.637299   C132.484467,413.609436 131.135513,414.235565 129.936874,415.019226   C130.143433,410.673340 129.949997,406.264343 130.624252,401.992279   C133.946396,380.942902 137.583618,359.943329 140.916000,338.895508   C141.872650,332.853119 140.852997,331.989197 134.628159,331.975464   C123.969513,331.951904 113.304115,332.165070 102.657120,331.810883   C100.201591,331.729156 96.676079,330.347687 95.703308,328.487061   C94.713089,326.593079 95.479118,322.855682 96.821350,320.806641   C116.145523,291.305908 135.669235,261.935608 155.214279,232.580078   C159.801270,225.690704 164.644791,218.972122 169.703705,212.305847   C170.716537,216.256363 172.196838,216.612274 174.628082,213.572418   C175.648254,212.296890 176.878601,211.189484 178.013382,210.005646  z"
   id="path139" />
<path
   fill="#1F5C2C"
   opacity="1.000000"
   stroke="none"
   d=" M177.809845,209.740433   C176.878601,211.189484 175.648254,212.296890 174.628082,213.572418   C172.196838,216.612274 170.716537,216.256363 169.983521,212.103363   C172.488693,211.005081 175.047501,210.240143 177.809845,209.740433  z"
   id="path140" />
<path
   fill="#225F2E"
   opacity="1.000000"
   stroke="none"
   d=" M130.119110,415.322784   C131.135513,414.235565 132.484467,413.609436 133.503265,412.637299   C136.081894,410.176758 137.364075,411.118134 138.130676,414.488342   C135.569443,415.107361 132.935394,415.366852 130.119110,415.322784  z"
   id="path141" />
</svg>
