<?xml version="1.0" encoding="UTF-8" standalone="no"?>
<svg id="svg4137" xmlns:rdf="http://www.w3.org/1999/02/22-rdf-syntax-ns#" xmlns="http://www.w3.org/2000/svg" height="2350.9" viewBox="0 0 3352.0467 2350.8748" width="3352" version="1.1" xmlns:cc="http://creativecommons.org/ns#" xmlns:xlink="http://www.w3.org/1999/xlink" xmlns:dc="http://purl.org/dc/elements/1.1/">
<defs id="defs4141">
<filter id="filter4699" style="color-interpolation-filters:sRGB" height="1.0203" width="1.0293" y="-.010171" x="-.014630">
<feGaussianBlur id="feGaussianBlur4701" stdDeviation="13.923148"/>
</filter>
<clipPath id="band-7">
<circle id="circle53-7" cy="0" cx="0" r="735"/>
</clipPath>
</defs>
<g id="g12292">
<path id="path4689" d="m82.308 3282.2c-0.989-39.5-35.333-76.2-71.441-76.2h-4.84v-41.5-41.5h3.5422c92.315 0 95.886-150.89 3.7559-158.68l-7.2981-0.6169v-32.673-32.673l8.8309-1.1757c88.423-11.773 89.723-143.65 1.5575-157.99l-10.386-1.7v-36.75-36.75h3.5422c92.358 0 95.93-150.88 3.7559-158.68l-7.2981-0.6169v-41.353-41.353h3.5422c32.139 0 63.994-28.277 71.534-63.5 9.82-45.9-27.203-95.5-71.26-95.5h-3.8163v-41.362-41.362l6.75-0.6838c91.162-9.2343 91.652-150.57 0.5481-158.27l-7.2981-0.6169v-41.206-41.206l7.385-0.6243c90.231-7.6273 90.222-150.71-0.011-158.34l-7.3744-0.6234v-36.728-36.728l3.125-0.625c1.7187-0.3437 4.3367-0.625 5.8176-0.625 15.126 0 39.423-14.074 50.863-29.463 36.836-49.549 8.7414-120.77-50.766-128.69l-9.0395-1.2035v-40.703-40.703l2.25-0.603c1.2375-0.3317 3.7962-0.6091 5.6861-0.6166 16.181-0.064 39.8-13.527 51.767-29.507 37.492-50.063 7.6121-122.91-52.954-129.09l-6.75-0.6896v-36.682-36.682l8.8309-1.1757c89.495-11.916 88.546-150.57-1.0809-157.85l-7.75-0.6295v-41.214-41.214l6.3299-0.64852c92.07-9.5 90.76-158.69-1.395-158.69h-4.938v-37.5-37.5h5.34c91.384 0 92.718-150.07 1.41-158.65l-6.75-0.63475v-32.71-32.71l7.25-0.61685c91.283-7.77 88.713-158.68-2.698-158.68h-4.5526v-32.79-32.79l10.298-1.6335c88.403-14.023 86.169-151.44-2.5612-157.54l-7.763-0.54 0.2633-33.1 0.2633-33.11 7.5-0.62505c32.938-2.745 62.331-31.558 67.525-66.194l0.702-4.681h47.271 47.271l0.6629 5.3058c10.95 87.639 135.92 86.352 151.01-1.556l0.644-3.75h40.26 40.26l1.2244 7.25c14.002 82.909 130.79 84.897 149.36 2.5429l2.21-9.793h36.299 36.299v2.34c0 9.6788 8.5936 29.835 17.328 40.644 40.863 50.564 120.38 29.68 133.36-35.025l1.59-7.959h36.163 36.163l1.2244 7.25c14.148 83.778 133.05 84.479 149.82 0.8843l1.6-8.134h36.154 36.154l1.2218 7.1251c14.55 84.85 135.48 84.23 150.28-0.76985l1.1-6.355h36.397 36.397v2.3117c0 14.445 13.656 39.571 27.915 51.362 45.258 37.423 112.93 11.535 123.15-47.106l1.1-6.568h40.172 40.172l1.7914 8.75c13.295 64.937 94.403 84.776 134.14 32.81 8.2025-10.728 16.523-30.729 16.523-39.72 0-1.7487 1.6-1.84 32.3-1.84h32.275l1.7191 8.3518c15.164 73.667 111.24 86.001 143.27 18.392 3.2523-6.8649 7.4638-20.917 7.4638-24.904 0-1.7563 1.9-1.84 40.4-1.84h40.386l0.7019 4.6808c13.122 87.501 137.93 87.501 151.05 0l0.7-4.681 32.136 0.0001022 32.136 0.0001022 0.1774 10.25c0.7219 41.71 34.737 77.65 73.573 77.735l6.75 0.01478v33.031c0 25.576-0.2821 33.109-1.25 33.373-0.6875 0.18811-4.175 0.8824-7.75 1.5429-80.196 14.816-79.773 140.34 0.5257 155.91l8.4677 1.6422v37.205 37.205l-3.75 0.64403c-53.208 9.1381-81.66 65.77-57.75 114.95 11.576 23.808 29.363 36.816 58.75 42.963l2.75 0.57524v32.936 32.936l-3.75 0.59531c-85.611 13.591-87.911 141.56-2.8351 157.7l6.5851 1.2492v37.169 37.169l-6.6022 1.1497c-83.37 14.518-82.649 147.04 0.8522 156.65l5.75 0.6616v41.768 41.768l-6.75 1.1726c-83.357 14.481-82.634 144.77 0.8708 156.79l5.3792 0.7739 0.2618 37.513 0.2618 37.513-6.8291 1.0753c-52.942 8.3364-80.993 76.343-50.392 122.17 13.163 19.714 37.111 35.198 54.439 35.198h2.781l-0.2609 41.694-0.261 41.694-7.5 1.3684c-51.829 9.4559-78.704 73.815-50.328 120.53 11.652 19.182 38.186 36.718 55.558 36.718h2.7701v37.455 37.455l-3.75 0.6161c-88.653 14.565-87.852 141.13 1 157.99l2.75 0.5217v41.436 41.436l-3.75 0.6161c-89.183 14.652-87.988 140.61 1.5 158.07l2.25 0.4391v41.462 41.462l-2.75 0.5217c-40.865 7.7524-67.25 38.754-67.25 79.016 0 40.3 26.347 71.257 67.25 79.016l2.75 0.5217v41.462 41.462l-2.75 0.5217c-88.901 16.865-89.702 143.42-1 157.99l3.75 0.6161v37.205 37.205l-8.4677 1.6422c-80.17 15.548-80.594 141.31-0.5257 155.92 3.575 0.6523 7.0625 1.34 7.75 1.5281 0.9678 0.2648 1.25 7.7883 1.25 33.328v32.986l-3.75 0.6161c-86.557 14.22-88.16 140.47-2 157.48l5.75 1.1355v36.785 36.785l-8.25 0.6847c-36.224 3.0064-62.939 27.718-71.193 65.853l-0.5952 2.75h-32.462-32.462l-0.5952-2.75c-8.6786-40.097-37.999-65.588-75.443-65.588-37.472 0-66.758 25.46-75.443 65.588l-0.5952 2.75h-40.512c-31.573 0-40.583-0.2758-40.832-1.25-0.1758-0.6875-1.0699-4.4-1.9868-8.25-18.498-77.675-130.95-77.294-147.63 0.5-0.6483 3.025-1.3948 6.2875-1.6588 7.25-0.6214 2.2652-65.151 2.7561-65.728 0.5-0.1758-0.6875-1.0699-4.4-1.9868-8.25-19.507-81.91-130.98-76.863-149.07 6.75l-0.5952 2.75h-40.512c-31.547 0-40.594-0.2766-40.88-1.25-0.202-0.6875-1.0832-4.4-1.9582-8.25-16.419-72.239-116.12-79.512-143.92-10.5-2.3703 5.8827-3.1087 8.3769-5.1071 17.25l-0.6193 2.75h-36.512c-28.347 0-36.594-0.2795-36.88-1.25-0.202-0.6875-1.094-4.4-1.9823-8.25-18.36-79.578-132.17-76.705-148.56 3.75l-1.1713 5.75h-36.46c-28.306 0-36.543-0.2796-36.828-1.25-0.202-0.6875-1.0915-4.3747-1.9768-8.1939-18.104-78.1-134.98-76.566-148.1 1.9439-1.3938 8.3435 2.7505 7.5559-38.214 7.2622l-36.578-0.2622-1.8149-7.6926c-19.11-80.998-132.04-79.136-148.85 2.4548l-1.1867 5.7623-36.576-0.2623-36.576-0.2622-1.8149-7.6926c-19.112-81.007-132.04-79.154-148.84 2.4426l-1.1841 5.75h-40.701-40.701l-1.2337-6.5037c-15.555-81.999-132.26-81.41-149.18 0.7537l-1.1841 5.75-47.179-0.01-47.179-0.01-0.2185-8.7446z" transform="matrix(0 1 1 0 27.416 27.416)" filter="url(#filter4699)"/>
<path id="path4687" d="m3303.7 103.72c-39.592-0.9891-76.244-35.333-76.244-71.442v-4.84h-41.5-41.5v3.5422c0 92.315-150.89 95.886-158.68 3.7559l-0.6169-7.2981h-32.673-32.673l-1.1757 8.8309c-11.773 88.423-143.65 89.723-157.99 1.5575l-1.6896-10.385h-36.75-36.75v3.5422c0 92.358-150.88 95.93-158.68 3.7559l-0.6169-7.2981h-41.353-41.353v3.5422c0 32.139-28.277 63.994-63.5 71.534-45.882 9.8209-95.5-27.203-95.5-71.259v-3.8163h-41.362-41.362l-0.6838 6.75c-9.2343 91.163-150.57 91.652-158.27 0.5481l-0.6169-7.2981h-41.206-41.206l-0.6243 7.385c-7.6273 90.231-150.71 90.222-158.34-0.011l-0.6234-7.3744h-36.728-36.728l-0.625 3.125c-0.3437 1.7188-0.625 4.3367-0.625 5.8176 0 15.126-14.074 39.423-29.463 50.863-49.549 36.837-120.77 8.7414-128.69-50.766l-1.2035-9.0395h-40.703-40.703l-0.603 2.25c-0.3317 1.2375-0.6091 3.7963-0.6166 5.6861-0.064 16.181-13.527 39.8-29.507 51.767-50.063 37.492-122.91 7.6121-129.09-52.954l-0.6896-6.75h-36.682-36.682l-1.1757 8.8309c-11.916 89.495-150.57 88.546-157.85-1.0809l-0.6295-7.75h-41.214-41.214l-0.6485 6.3299c-9.4334 92.073-158.63 90.764-158.63-1.3948v-4.938h-37.5-37.5v5.34c0 91.384-150.07 92.718-158.65 1.41l-0.63475-6.75h-32.71-32.71l-0.61685 7.25c-7.7664 91.281-158.68 88.716-158.68-2.6974v-4.5526h-32.79-32.79l-1.6335 10.298c-14.08 88.404-151.5 86.174-157.6-2.557l-0.53355-7.7633-33.106 0.2633-33.106 0.2633-0.62505 7.5c-2.7451 32.939-31.558 62.331-66.194 67.525l-4.6808 0.7019v47.271 47.271l5.3058 0.6629c87.639 10.95 86.352 135.92-1.5558 151.01l-3.75 0.644v40.26 40.26l7.25 1.2244c82.909 14.002 84.897 130.79 2.5429 149.36l-9.7929 2.2085v36.299 36.299h2.34c9.6788 0 29.835 8.5936 40.644 17.328 50.564 40.863 29.68 120.38-35.025 133.36l-7.9591 1.5963v36.163 36.163l7.25 1.2244c83.778 14.148 84.479 133.05 0.8843 149.82l-8.1343 1.6315v36.154 36.154l7.1251 1.2218c84.85 14.55 84.23 135.48-0.76985 150.28l-6.3553 1.1067v36.397 36.397h2.3117c14.445 0 39.571 13.656 51.362 27.915 37.423 45.258 11.535 112.93-47.106 123.15l-6.5676 1.1437v40.172 40.172l8.75 1.7914c64.937 13.295 84.776 94.403 32.81 134.14-10.728 8.2025-30.729 16.523-39.72 16.523-1.7487 0-1.84 1.6019-1.84 32.275v32.275l8.3518 1.7191c73.667 15.164 86.001 111.24 18.392 143.27-6.8649 3.2523-20.917 7.4638-24.904 7.4638-1.7563 0-1.84 1.837-1.84 40.386v40.386l4.6808 0.7019c87.501 13.122 87.501 137.93 0 151.05l-4.6808 0.7019 0.000102 32.136 0.000102 32.136 10.25 0.1774c41.71 0.7219 77.65 34.737 77.735 73.573l0.0148 6.75h33.031c25.576 0 33.109-0.2821 33.373-1.25 0.18811-0.6875 0.8824-4.175 1.5429-7.75 14.816-80.196 140.34-79.773 155.91 0.5257l1.6422 8.4677h37.205 37.205l0.64403-3.75c9.1381-53.208 65.77-81.66 114.95-57.75 23.808 11.576 36.816 29.363 42.963 58.75l0.57524 2.75h32.936 32.936l0.59531-3.75c13.591-85.611 141.56-87.911 157.7-2.8351l1.2492 6.5851h37.169 37.169l1.1497-6.6022c14.518-83.37 147.04-82.649 156.65 0.8522l0.6616 5.75h41.768 41.768l1.1726-6.75c14.481-83.357 144.77-82.634 156.79 0.8708l0.7739 5.3792 37.513 0.2618 37.513 0.2618 1.0753-6.8291c8.3364-52.942 76.343-80.993 122.17-50.392 19.714 13.163 35.198 37.111 35.198 54.439v2.781l41.694-0.2609 41.694-0.261 1.3684-7.5c9.4559-51.829 73.815-78.704 120.53-50.328 19.182 11.652 36.718 38.186 36.718 55.558v2.7701h37.455 37.455l0.6161-3.75c14.565-88.653 141.13-87.852 157.99 1l0.5217 2.75h41.436 41.436l0.6161-3.75c14.652-89.183 140.61-87.988 158.07 1.5l0.4391 2.25h41.462 41.462l0.5217-2.75c7.7524-40.865 38.754-67.25 79.016-67.25 40.3 0 71.257 26.347 79.016 67.25l0.5217 2.75h41.462 41.462l0.5217-2.75c16.865-88.901 143.42-89.702 157.99-1l0.6161 3.75h37.205 37.205l1.6422-8.4677c15.548-80.17 141.31-80.594 155.92-0.5257 0.6523 3.575 1.34 7.0625 1.5281 7.75 0.2648 0.9678 7.7883 1.25 33.328 1.25h32.986l0.6161-3.75c14.22-86.557 140.47-88.16 157.48-2l1.1355 5.75h36.785 36.785l0.6847-8.25c3.0064-36.224 27.718-62.939 65.853-71.193l2.75-0.5952v-32.462-32.462l-2.75-0.5952c-40.097-8.6786-65.588-37.999-65.588-75.443 0-37.472 25.46-66.758 65.588-75.443l2.75-0.5952v-40.512c0-31.573-0.2758-40.583-1.25-40.832-0.6875-0.1758-4.4-1.0699-8.25-1.9868-77.675-18.498-77.294-130.95 0.5-147.63 3.025-0.6483 6.2875-1.3948 7.25-1.6588 2.2652-0.6214 2.7561-65.151 0.5-65.728-0.6875-0.1758-4.4-1.0699-8.25-1.9868-81.91-19.507-76.863-130.98 6.75-149.07l2.75-0.5952v-40.512c0-31.547-0.2766-40.594-1.25-40.88-0.6875-0.202-4.4-1.0832-8.25-1.9582-72.239-16.419-79.512-116.12-10.5-143.92 5.8827-2.3703 8.3769-3.1087 17.25-5.1071l2.75-0.6193v-36.512c0-28.347-0.2795-36.594-1.25-36.88-0.6875-0.202-4.4-1.094-8.25-1.9823-79.578-18.36-76.705-132.17 3.75-148.56l5.75-1.1713v-36.46c0-28.306-0.2796-36.543-1.25-36.828-0.6875-0.202-4.3747-1.0915-8.1939-1.9768-78.1-18.104-76.566-134.98 1.9439-148.1 8.3435-1.3938 7.5559 2.7505 7.2622-38.214l-0.2622-36.578-7.6926-1.8149c-80.998-19.11-79.136-132.04 2.4548-148.85l5.7623-1.1867-0.2623-36.576-0.2622-36.576-7.6926-1.8149c-81.007-19.112-79.154-132.04 2.4426-148.84l5.75-1.1841v-40.701-40.701l-6.5037-1.2337c-81.999-15.555-81.41-132.26 0.7537-149.18l5.75-1.1841-0.01-47.179-0.01-47.179-8.7446-0.2185z" fill="#f2f2f2"/>
<g id="g11887">
<rect id="rect46" height="1983.7" width="2984.9" y="180.4" x="177.58" fill="#009b3a"/>
<g id="g11484" transform="translate(0,55)">
<path id="path48" fill="#fedf00" d="m431.3 1119.4 1238.7 791 1238.8-791-1238.8-790.99z"/>
<circle id="circle50" cy="1119.4" cx="1670" r="522.35" fill="#002776"/>
<path id="path55" d="m-2205 1470a1785 1785 0 0 1 3570 0h-105a1680 1680 0 1 0 -3360 0z" clip-path="url(#band-7)" transform="matrix(.71069 0 0 .71069 1670 1119.4)" fill="#fff"/>
<g fill="#009b3a">
<path id="use59-1" d="m1224.5 966.72a24.874 22.387 83 0 0 -6.0627 -49.377 24.874 22.387 83 1 0 6.0627 49.377m-1.1259-9.17a15.635 13.148 83 1 0 -3.8109 -31.037 15.635 13.148 83 0 0 3.8109 31.037" fill-rule="evenodd"/>
<path id="use5929" d="m1265.1 962.22 9.2164-0.64448-1.289-18.433 19.851-1.3881a15.635 15.635 0 1 0 -2.1813 -31.194l-28.358 1.983zm7.283-28.294 19.142-1.3385a6.3962 6.3962 0 1 0 -0.8924 -12.761l-19.142 1.3385z" fill-rule="evenodd"/>
<path id="path5931" d="m1307.2 959.27c-0.4958-7.0896-1.5864-22.687-12.221-21.943l-13.47 0.94193c15.597-1.0906 16.688 14.506 17.183 21.596"/>
<path id="use63-2" d="m1328.1 958.3 23.449-0.40931a21.321 21.321 0 0 0 20.945 -21.689l-0.1241-7.1058a21.321 21.321 0 0 0 -21.689 -20.945l-23.449 0.40931zm9.0763-9.3988 13.501-0.23566a13.503 13.503 0 0 0 13.265 -13.737l-0.074-4.2635a13.503 13.503 0 0 0 -13.737 -13.265l-13.501 0.23566z" fill-rule="evenodd"/>
<path id="use65-8" d="m1391.3 957.68 44.746 1.5626 0.3225-9.2333-36.223-1.2649 0.4464-12.785 28.41 0.9921 0.2977-8.523-28.41-0.99211 0.3473-9.9436 34.092 1.1905 0.3225-9.2333-42.615-1.4882z"/>
<path id="use67-7" d="m1454.4 960.36 8.4958 0.74328 2.9732-33.983 6.9386 34.85 7.7878 0.68134 12.885-33.116-2.9731 33.983 8.4958 0.74328 4.3358-49.559-12.39-1.084-12.885 33.116-6.9386-34.85-12.39-1.084z"/>
<path id="use69-1" d="m1557.5 971.99 36.772 6.3186 1.4443-8.4051-28.367-4.8744 1.9257-11.207 23.114 3.9717 1.4442-8.405-23.114-3.9717 1.3239-7.7046 27.492 4.7239 1.4442-8.4051-35.897-6.1682z"/>
<path id="use71-3" d="m1651.9 990.55 8.9446 2.3132 4.6265-17.889 19.265 4.9824a15.635 15.635 0 1 0 7.8294 -30.274l-27.522-7.1177zm15.884-24.521 18.577 4.8044a6.3962 6.3962 0 1 0 3.2029 -12.385l-18.577-4.8044z" fill-rule="evenodd"/>
<path id="use5913" d="m1713 1006.8 8.8113 2.7782 5.5564-17.623 18.978 5.9838a15.635 15.635 0 0 0 9.4031 -29.823l-27.112-8.5483zm17.146-23.656 18.3 5.7701a6.3962 6.3962 0 1 0 3.8467 -12.2l-18.3-5.7701z" fill-rule="evenodd"/>
<path id="path5915" d="m1753.3 1019.5c2.1371-6.7779 6.8386-21.689-3.3283-24.895l-12.878-4.0604c14.911 4.7016 10.21 19.613 8.0728 26.391"/>
<path id="use75-1" d="m1794 1034.1a22.387 24.874 20.5 0 0 17.422 -46.598 22.387 24.874 20.5 1 0 -17.422 46.598m3.2355-8.6538a13.148 15.635 20.5 0 0 10.951 -29.29 13.148 15.635 20.5 1 0 -10.951 29.29" fill-rule="evenodd"/>
<path id="use5903" d="m1852.6 1057.8a22.387 24.874 23.5 0 0 19.837 -45.622 22.387 24.874 23.5 1 0 -19.837 45.622m3.684-8.4726a13.148 15.635 23.5 0 0 12.469 -28.677 13.148 15.635 23.5 1 0 -12.469 28.677" fill-rule="evenodd"/>
<rect id="rect5905" transform="rotate(23.5)" height="7.1069" width="18.833" y="206.46" x="2124.3"/>
<rect id="rect5907" transform="rotate(23.5)" height="24.874" width="7.1069" y="206.46" x="2136"/>
<path id="use5893" d="m1889.8 1074.5 8.2682 4.1224 8.2448-16.536 17.808 8.879a15.635 15.635 0 0 0 13.953 -27.985l-25.441-12.684zm20.635-20.682 17.172 8.5619a6.3962 6.3962 0 1 0 5.7079 -11.448l-17.172-8.5619z" fill-rule="evenodd"/>
<path id="path5895" d="m1927.6 1093.4c3.1711-6.3601 10.148-20.352 0.6072-25.109l-12.084-6.0251c13.992 6.9764 7.016 20.969 3.8449 27.329"/>
<path id="use81-7" d="m1946.1 1103.1 38.969 22.047 4.5495-8.0412-31.546-17.848 6.2992-11.134 24.742 13.998 4.1995-7.4226-24.742-13.998 4.8995-8.6597 29.69 16.798 4.5495-8.0412-37.113-20.998z"/>
<path id="use83-9" d="m2018.7 1127.5c-2.6729 4.1957 0.036 8.8711 6.0303 12.69 5.9939 3.8185 10.076 3.6805 11.8 0.9871 5.4414-8.5413-26.017-20.998-16.32-35.888 8.3596-12.791 22.663-2.8366 28.057 0.6001 5.3945 3.4366 14.057 12.326 7.3199 22.57l-9.1407-5.8232c2.8639-4.4954-0.2817-8.8167-5.0768-11.872-4.6452-2.9594-8.4192-4.3103-11.188 0.035-4.6366 6.9474 26.194 20.058 16.743 34.893-6.9688 10.939-19.094 6.1634-27.186 1.0084-6.8929-4.3913-17.192-14.745-10.48-25.215z"/>
<path id="use85-1" d="m2072.1 1162.7c-2.8889 4.0501-0.4279 8.8608 5.3579 12.988 5.7858 4.127 9.8696 4.2028 11.732 1.6033 5.8809-8.2448-24.882-22.331-14.42-36.692 9.0176-12.336 22.78-1.6467 27.987 2.0676 5.2072 3.7143 13.392 13.044 6.1286 22.922l-8.8234-6.2936c3.0953-4.3394 0.1801-8.8194-4.4485-12.121-4.484-3.1984-8.1821-4.7451-11.174-0.5503-4.9939 6.6951 25.108 21.402 14.894 35.721-7.5318 10.559-19.391 5.1556-27.202-0.4158-6.6537-4.746-16.397-15.624-9.1459-25.729z"/>
<path id="use87-4" d="m2122.5 1220a22.387 24.874 38.5 0 0 30.969 -38.933 22.387 24.874 38.5 1 0 -30.969 38.933m5.7514-7.2304a13.148 15.635 38.5 0 0 19.466 -24.472 13.148 15.635 38.5 1 0 -19.466 24.472" fill-rule="evenodd"/>
</g>
<g fill="#fff">
<path id="path5840" d="m1243.6 1003.2-6.9178 21.291 10.646 3.4589"/>
<path id="use5842" d="m1243.6 1003.2 6.9179 21.291-10.646 3.4589"/>
<g id="use5844" transform="matrix(6.9178 21.291 -21.291 6.9178 1243.6 1025.6)">
<path id="path8128" d="m0-1v1h0.5" transform="matrix(.95106 .30902 -.30902 .95106 -.30902 -.048943)"/>
<use id="use8130" xlink:href="#t" transform="scale(-1,1)" height="100%" width="100%" y="0" x="0"/>
</g>
<g id="use5846" transform="matrix(6.9178 -21.291 21.291 6.9178 1243.6 1025.6)">
<path id="path8134" d="m0-1v1h0.5" transform="matrix(.95106 .30902 -.30902 .95106 -.30902 -.048943)"/>
<use id="use8136" xlink:href="#t" transform="scale(-1,1)" height="100%" width="100%" y="0" x="0"/>
</g>
<g id="use5848" transform="matrix(-18.111 13.159 -13.159 -18.111 1243.6 1025.6)">
<path id="path8140" d="m0-1v1h0.5" transform="matrix(.95106 .30902 -.30902 .95106 -.30902 -.048943)"/>
<use id="use8142" xlink:href="#t" transform="scale(-1,1)" height="100%" width="100%" y="0" x="0"/>
</g>
<g id="use5850" transform="matrix(-18.111 -13.159 13.159 -18.111 1243.6 1025.6)">
<path id="path8146" d="m0-1v1h0.5" transform="matrix(.95106 .30902 -.30902 .95106 -.30902 -.048943)"/>
<use id="use8148" xlink:href="#t" transform="scale(-1,1)" height="100%" width="100%" y="0" x="0"/>
</g>
<path id="path5808" d="m1289.8 1222.8-6.9178 21.291 10.646 3.459"/>
<path id="use5810" d="m1289.8 1222.8 6.9179 21.291-10.646 3.459"/>
<g id="use5812" transform="matrix(6.9178 21.291 -21.291 6.9178 1289.8 1245.2)">
<path id="path8102" d="m0-1v1h0.5" transform="matrix(.95106 .30902 -.30902 .95106 -.30902 -.048943)"/>
<use id="use8104" xlink:href="#t" transform="scale(-1,1)" height="100%" width="100%" y="0" x="0"/>
</g>
<g id="use5814" transform="matrix(6.9178 -21.291 21.291 6.9178 1289.8 1245.2)">
<path id="path8108" d="m0-1v1h0.5" transform="matrix(.95106 .30902 -.30902 .95106 -.30902 -.048943)"/>
<use id="use8110" xlink:href="#t" transform="scale(-1,1)" height="100%" width="100%" y="0" x="0"/>
</g>
<g id="use5816" transform="matrix(-18.111 13.159 -13.159 -18.111 1289.8 1245.2)">
<path id="path8114" d="m0-1v1h0.5" transform="matrix(.95106 .30902 -.30902 .95106 -.30902 -.048943)"/>
<use id="use8116" xlink:href="#t" transform="scale(-1,1)" height="100%" width="100%" y="0" x="0"/>
</g>
<g id="use5818" transform="matrix(-18.111 -13.159 13.159 -18.111 1289.8 1245.2)">
<path id="path8120" d="m0-1v1h0.5" transform="matrix(.95106 .30902 -.30902 .95106 -.30902 -.048943)"/>
<use id="use8122" xlink:href="#t" transform="scale(-1,1)" height="100%" width="100%" y="0" x="0"/>
</g>
<path id="path5824" d="m1225.8 1273.4-5.7649 17.742 8.8712 2.8825"/>
<path id="use5826" d="m1225.8 1273.4 5.7649 17.742-8.8713 2.8825"/>
<g id="use5828" transform="matrix(5.7649 17.742 -17.742 5.7649 1225.8 1292.1)">
<path id="path8076" d="m0-1v1h0.5" transform="matrix(.95106 .30902 -.30902 .95106 -.30902 -.048943)"/>
<use id="use8078" xlink:href="#t" transform="scale(-1,1)" height="100%" width="100%" y="0" x="0"/>
</g>
<g id="use5830" transform="matrix(5.7649 -17.742 17.742 5.7649 1225.8 1292.1)">
<path id="path8082" d="m0-1v1h0.5" transform="matrix(.95106 .30902 -.30902 .95106 -.30902 -.048943)"/>
<use id="use8084" xlink:href="#t" transform="scale(-1,1)" height="100%" width="100%" y="0" x="0"/>
</g>
<g id="use5832" transform="matrix(-15.093 10.965 -10.965 -15.093 1225.8 1292.1)">
<path id="path8088" d="m0-1v1h0.5" transform="matrix(.95106 .30902 -.30902 .95106 -.30902 -.048943)"/>
<use id="use8090" xlink:href="#t" transform="scale(-1,1)" height="100%" width="100%" y="0" x="0"/>
</g>
<g id="use5834" transform="matrix(-15.093 -10.965 10.965 -15.093 1225.8 1292.1)">
<path id="path8094" d="m0-1v1h0.5" transform="matrix(.95106 .30902 -.30902 .95106 -.30902 -.048943)"/>
<use id="use8096" xlink:href="#t" transform="scale(-1,1)" height="100%" width="100%" y="0" x="0"/>
</g>
<path id="path5792" d="m1341 1202.6-3.2943 10.139 5.0693 1.6471"/>
<path id="use5794" d="m1341 1202.6 3.2942 10.139-5.0693 1.6471"/>
<g id="use5796" transform="matrix(3.2942 10.139 -10.139 3.2942 1341 1213.2)">
<path id="path8050" d="m0-1v1h0.5" transform="matrix(.95106 .30902 -.30902 .95106 -.30902 -.048943)"/>
<use id="use8052" xlink:href="#t" transform="scale(-1,1)" height="100%" width="100%" y="0" x="0"/>
</g>
<g id="use5798" transform="matrix(3.2942 -10.139 10.139 3.2942 1341 1213.2)">
<path id="path8056" d="m0-1v1h0.5" transform="matrix(.95106 .30902 -.30902 .95106 -.30902 -.048943)"/>
<use id="use8058" xlink:href="#t" transform="scale(-1,1)" height="100%" width="100%" y="0" x="0"/>
</g>
<g id="use5800" transform="matrix(-8.6244 6.266 -6.266 -8.6244 1341 1213.2)">
<path id="path8062" d="m0-1v1h0.5" transform="matrix(.95106 .30902 -.30902 .95106 -.30902 -.048943)"/>
<use id="use8064" xlink:href="#t" transform="scale(-1,1)" height="100%" width="100%" y="0" x="0"/>
</g>
<g id="use5802" transform="matrix(-8.6244 -6.266 6.266 -8.6244 1341 1213.2)">
<path id="path8068" d="m0-1v1h0.5" transform="matrix(.95106 .30902 -.30902 .95106 -.30902 -.048943)"/>
<use id="use8070" xlink:href="#t" transform="scale(-1,1)" height="100%" width="100%" y="0" x="0"/>
</g>
<path id="path5760" d="m1398.5 1278.4-5.7648 17.742 8.8712 2.8825"/>
<path id="use5762" d="m1398.5 1278.4 5.7649 17.742-8.8712 2.8825"/>
<g id="use5764" transform="matrix(5.7649 17.742 -17.742 5.7649 1398.5 1297.1)">
<path id="path8024" d="m0-1v1h0.5" transform="matrix(.95106 .30902 -.30902 .95106 -.30902 -.048943)"/>
<use id="use8026" xlink:href="#t" transform="scale(-1,1)" height="100%" width="100%" y="0" x="0"/>
</g>
<g id="use5766" transform="matrix(5.7649 -17.742 17.742 5.7649 1398.5 1297.1)">
<path id="path8030" d="m0-1v1h0.5" transform="matrix(.95106 .30902 -.30902 .95106 -.30902 -.048943)"/>
<use id="use8032" xlink:href="#t" transform="scale(-1,1)" height="100%" width="100%" y="0" x="0"/>
</g>
<g id="use5768" transform="matrix(-15.093 10.965 -10.965 -15.093 1398.5 1297.1)">
<path id="path8036" d="m0-1v1h0.5" transform="matrix(.95106 .30902 -.30902 .95106 -.30902 -.048943)"/>
<use id="use8038" xlink:href="#t" transform="scale(-1,1)" height="100%" width="100%" y="0" x="0"/>
</g>
<g id="use5770" transform="matrix(-15.093 -10.965 10.965 -15.093 1398.5 1297.1)">
<path id="path8042" d="m0-1v1h0.5" transform="matrix(.95106 .30902 -.30902 .95106 -.30902 -.048943)"/>
<use id="use8044" xlink:href="#t" transform="scale(-1,1)" height="100%" width="100%" y="0" x="0"/>
</g>
<path id="path5744" d="m1382.9 1334-4.6119 14.194 7.097 2.3059"/>
<path id="use5746" d="m1382.9 1334 4.6119 14.194-7.0969 2.3059"/>
<g id="use5748" transform="matrix(4.6119 14.194 -14.194 4.6119 1382.9 1349)">
<path id="path7998" d="m0-1v1h0.5" transform="matrix(.95106 .30902 -.30902 .95106 -.30902 -.048943)"/>
<use id="use8000" xlink:href="#t" transform="scale(-1,1)" height="100%" width="100%" y="0" x="0"/>
</g>
<g id="use5750" transform="matrix(4.6119 -14.194 14.194 4.6119 1382.9 1349)">
<path id="path8004" d="m0-1v1h0.5" transform="matrix(.95106 .30902 -.30902 .95106 -.30902 -.048943)"/>
<use id="use8006" xlink:href="#t" transform="scale(-1,1)" height="100%" width="100%" y="0" x="0"/>
</g>
<g id="use5752" transform="matrix(-12.074 8.7723 -8.7723 -12.074 1382.9 1349)">
<path id="path8010" d="m0-1v1h0.5" transform="matrix(.95106 .30902 -.30902 .95106 -.30902 -.048943)"/>
<use id="use8012" xlink:href="#t" transform="scale(-1,1)" height="100%" width="100%" y="0" x="0"/>
</g>
<g id="use5754" transform="matrix(-12.074 -8.7723 8.7723 -12.074 1382.9 1349)">
<path id="path8016" d="m0-1v1h0.5" transform="matrix(.95106 .30902 -.30902 .95106 -.30902 -.048943)"/>
<use id="use8018" xlink:href="#t" transform="scale(-1,1)" height="100%" width="100%" y="0" x="0"/>
</g>
<path id="path5856" d="m1832.1 934.98-6.9178 21.291 10.645 3.4589"/>
<path id="use5858" d="m1832.1 934.98 6.9179 21.291-10.646 3.4589"/>
<g id="use5860" transform="matrix(6.9178 21.291 -21.291 6.9178 1832.1 957.37)">
<path id="path7972" d="m0-1v1h0.5" transform="matrix(.95106 .30902 -.30902 .95106 -.30902 -.048943)"/>
<use id="use7974" xlink:href="#t" transform="scale(-1,1)" height="100%" width="100%" y="0" x="0"/>
</g>
<g id="use5862" transform="matrix(6.9178 -21.291 21.291 6.9178 1832.1 957.37)">
<path id="path7978" d="m0-1v1h0.5" transform="matrix(.95106 .30902 -.30902 .95106 -.30902 -.048943)"/>
<use id="use7980" xlink:href="#t" transform="scale(-1,1)" height="100%" width="100%" y="0" x="0"/>
</g>
<g id="use5864" transform="matrix(-18.111 13.159 -13.159 -18.111 1832.1 957.37)">
<path id="path7984" d="m0-1v1h0.5" transform="matrix(.95106 .30902 -.30902 .95106 -.30902 -.048943)"/>
<use id="use7986" xlink:href="#t" transform="scale(-1,1)" height="100%" width="100%" y="0" x="0"/>
</g>
<g id="use5866" transform="matrix(-18.111 -13.159 13.159 -18.111 1832.1 957.37)">
<path id="path7990" d="m0-1v1h0.5" transform="matrix(.95106 .30902 -.30902 .95106 -.30902 -.048943)"/>
<use id="use7992" xlink:href="#t" transform="scale(-1,1)" height="100%" width="100%" y="0" x="0"/>
</g>
<path id="path5440" d="m2036 1280.4-6.9179 21.291 10.646 3.4589"/>
<path id="use5442" d="m2036 1280.4 6.9178 21.291-10.646 3.4589"/>
<g id="use5444" transform="matrix(6.9178 21.291 -21.291 6.9178 2036 1302.8)">
<path id="path7946" d="m0-1v1h0.5" transform="matrix(.95106 .30902 -.30902 .95106 -.30902 -.048943)"/>
<use id="use7948" xlink:href="#t" transform="scale(-1,1)" height="100%" width="100%" y="0" x="0"/>
</g>
<g id="use5446" transform="matrix(6.9178 -21.291 21.291 6.9178 2036 1302.8)">
<path id="path7952" d="m0-1v1h0.5" transform="matrix(.95106 .30902 -.30902 .95106 -.30902 -.048943)"/>
<use id="use7954" xlink:href="#t" transform="scale(-1,1)" height="100%" width="100%" y="0" x="0"/>
</g>
<g id="use5448" transform="matrix(-18.111 13.159 -13.159 -18.111 2036 1302.8)">
<path id="path7958" d="m0-1v1h0.5" transform="matrix(.95106 .30902 -.30902 .95106 -.30902 -.048943)"/>
<use id="use7960" xlink:href="#t" transform="scale(-1,1)" height="100%" width="100%" y="0" x="0"/>
</g>
<g id="use5450" transform="matrix(-18.111 -13.159 13.159 -18.111 2036 1302.8)">
<path id="path7964" d="m0-1v1h0.5" transform="matrix(.95106 .30902 -.30902 .95106 -.30902 -.048943)"/>
<use id="use7966" xlink:href="#t" transform="scale(-1,1)" height="100%" width="100%" y="0" x="0"/>
</g>
<path id="path5456" d="m2108.5 1292.8-4.6119 14.194 7.0969 2.306"/>
<path id="use5458" d="m2108.5 1292.8 4.6119 14.194-7.097 2.306"/>
<g id="use5460" transform="matrix(4.6119 14.194 -14.194 4.6119 2108.5 1307.7)">
<path id="path7920" d="m0-1v1h0.5" transform="matrix(.95106 .30902 -.30902 .95106 -.30902 -.048943)"/>
<use id="use7922" xlink:href="#t" transform="scale(-1,1)" height="100%" width="100%" y="0" x="0"/>
</g>
<g id="use5462" transform="matrix(4.6119 -14.194 14.194 4.6119 2108.5 1307.7)">
<path id="path7926" d="m0-1v1h0.5" transform="matrix(.95106 .30902 -.30902 .95106 -.30902 -.048943)"/>
<use id="use7928" xlink:href="#t" transform="scale(-1,1)" height="100%" width="100%" y="0" x="0"/>
</g>
<g id="use5464" transform="matrix(-12.074 8.7723 -8.7723 -12.074 2108.5 1307.7)">
<path id="path7932" d="m0-1v1h0.5" transform="matrix(.95106 .30902 -.30902 .95106 -.30902 -.048943)"/>
<use id="use7934" xlink:href="#t" transform="scale(-1,1)" height="100%" width="100%" y="0" x="0"/>
</g>
<g id="use5466" transform="matrix(-12.074 -8.7723 8.7723 -12.074 2108.5 1307.7)">
<path id="path7938" d="m0-1v1h0.5" transform="matrix(.95106 .30902 -.30902 .95106 -.30902 -.048943)"/>
<use id="use7940" xlink:href="#t" transform="scale(-1,1)" height="100%" width="100%" y="0" x="0"/>
</g>
<path id="path5472" d="m2057.3 1330.3-5.7648 17.742 8.8712 2.8825"/>
<path id="use5474" d="m2057.3 1330.3 5.7649 17.742-8.8712 2.8825"/>
<g id="use5476" transform="matrix(5.7649 17.742 -17.742 5.7649 2057.3 1349)">
<path id="path7894" d="m0-1v1h0.5" transform="matrix(.95106 .30902 -.30902 .95106 -.30902 -.048943)"/>
<use id="use7896" xlink:href="#t" transform="scale(-1,1)" height="100%" width="100%" y="0" x="0"/>
</g>
<g id="use5478" transform="matrix(5.7649 -17.742 17.742 5.7649 2057.3 1349)">
<path id="path7900" d="m0-1v1h0.5" transform="matrix(.95106 .30902 -.30902 .95106 -.30902 -.048943)"/>
<use id="use7902" xlink:href="#t" transform="scale(-1,1)" height="100%" width="100%" y="0" x="0"/>
</g>
<g id="use5480" transform="matrix(-15.093 10.965 -10.965 -15.093 2057.3 1349)">
<path id="path7906" d="m0-1v1h0.5" transform="matrix(.95106 .30902 -.30902 .95106 -.30902 -.048943)"/>
<use id="use7908" xlink:href="#t" transform="scale(-1,1)" height="100%" width="100%" y="0" x="0"/>
</g>
<g id="use5482" transform="matrix(-15.093 -10.965 10.965 -15.093 2057.3 1349)">
<path id="path7912" d="m0-1v1h0.5" transform="matrix(.95106 .30902 -.30902 .95106 -.30902 -.048943)"/>
<use id="use7914" xlink:href="#t" transform="scale(-1,1)" height="100%" width="100%" y="0" x="0"/>
</g>
<path id="path5536" d="m1931.6 1439.7-5.7649 17.742 8.8712 2.8824"/>
<path id="use5538" d="m1931.6 1439.7 5.7649 17.742-8.8713 2.8824"/>
<g id="use5540" transform="matrix(5.7649 17.742 -17.742 5.7649 1931.6 1458.4)">
<path id="path7868" d="m0-1v1h0.5" transform="matrix(.95106 .30902 -.30902 .95106 -.30902 -.048943)"/>
<use id="use7870" xlink:href="#t" transform="scale(-1,1)" height="100%" width="100%" y="0" x="0"/>
</g>
<g id="use5542" transform="matrix(5.7649 -17.742 17.742 5.7649 1931.6 1458.4)">
<path id="path7874" d="m0-1v1h0.5" transform="matrix(.95106 .30902 -.30902 .95106 -.30902 -.048943)"/>
<use id="use7876" xlink:href="#t" transform="scale(-1,1)" height="100%" width="100%" y="0" x="0"/>
</g>
<g id="use5544" transform="matrix(-15.093 10.965 -10.965 -15.093 1931.6 1458.4)">
<path id="path7880" d="m0-1v1h0.5" transform="matrix(.95106 .30902 -.30902 .95106 -.30902 -.048943)"/>
<use id="use7882" xlink:href="#t" transform="scale(-1,1)" height="100%" width="100%" y="0" x="0"/>
</g>
<g id="use5546" transform="matrix(-15.093 -10.965 10.965 -15.093 1931.6 1458.4)">
<path id="path7886" d="m0-1v1h0.5" transform="matrix(.95106 .30902 -.30902 .95106 -.30902 -.048943)"/>
<use id="use7888" xlink:href="#t" transform="scale(-1,1)" height="100%" width="100%" y="0" x="0"/>
</g>
<path id="path5520" d="m1930.8 1496.1-4.6119 14.194 7.097 2.306"/>
<path id="use5522" d="m1930.8 1496.1 4.6119 14.194-7.097 2.3059"/>
<g id="use5524" transform="matrix(4.6119 14.194 -14.194 4.6119 1930.8 1511)">
<path id="path7842" d="m0-1v1h0.5" transform="matrix(.95106 .30902 -.30902 .95106 -.30902 -.048943)"/>
<use id="use7844" xlink:href="#t" transform="scale(-1,1)" height="100%" width="100%" y="0" x="0"/>
</g>
<g id="use5526" transform="matrix(4.6119 -14.194 14.194 4.6119 1930.8 1511)">
<path id="path7848" d="m0-1v1h0.5" transform="matrix(.95106 .30902 -.30902 .95106 -.30902 -.048943)"/>
<use id="use7850" xlink:href="#t" transform="scale(-1,1)" height="100%" width="100%" y="0" x="0"/>
</g>
<g id="use5528" transform="matrix(-12.074 8.7723 -8.7723 -12.074 1930.8 1511)">
<path id="path7854" d="m0-1v1h0.5" transform="matrix(.95106 .30902 -.30902 .95106 -.30902 -.048943)"/>
<use id="use7856" xlink:href="#t" transform="scale(-1,1)" height="100%" width="100%" y="0" x="0"/>
</g>
<g id="use5530" transform="matrix(-12.074 -8.7723 8.7723 -12.074 1930.8 1511)">
<path id="path7860" d="m0-1v1h0.5" transform="matrix(.95106 .30902 -.30902 .95106 -.30902 -.048943)"/>
<use id="use7862" xlink:href="#t" transform="scale(-1,1)" height="100%" width="100%" y="0" x="0"/>
</g>
<path id="path5504" d="m1983.4 1402.3-4.6119 14.194 7.097 2.306"/>
<path id="use5506" d="m1983.4 1402.3 4.6119 14.194-7.097 2.306"/>
<g id="use5508" transform="matrix(4.6119 14.194 -14.194 4.6119 1983.4 1417.2)">
<path id="path7816" d="m0-1v1h0.5" transform="matrix(.95106 .30902 -.30902 .95106 -.30902 -.048943)"/>
<use id="use7818" xlink:href="#t" transform="scale(-1,1)" height="100%" width="100%" y="0" x="0"/>
</g>
<g id="use5510" transform="matrix(4.6119 -14.194 14.194 4.6119 1983.4 1417.2)">
<path id="path7822" d="m0-1v1h0.5" transform="matrix(.95106 .30902 -.30902 .95106 -.30902 -.048943)"/>
<use id="use7824" xlink:href="#t" transform="scale(-1,1)" height="100%" width="100%" y="0" x="0"/>
</g>
<g id="use5512" transform="matrix(-12.074 8.7723 -8.7723 -12.074 1983.4 1417.2)">
<path id="path7828" d="m0-1v1h0.5" transform="matrix(.95106 .30902 -.30902 .95106 -.30902 -.048943)"/>
<use id="use7830" xlink:href="#t" transform="scale(-1,1)" height="100%" width="100%" y="0" x="0"/>
</g>
<g id="use5514" transform="matrix(-12.074 -8.7723 8.7723 -12.074 1983.4 1417.2)">
<path id="path7834" d="m0-1v1h0.5" transform="matrix(.95106 .30902 -.30902 .95106 -.30902 -.048943)"/>
<use id="use7836" xlink:href="#t" transform="scale(-1,1)" height="100%" width="100%" y="0" x="0"/>
</g>
<path id="path5488" d="m2025.4 1372.2-5.7649 17.742 8.8712 2.8825"/>
<path id="use5490" d="m2025.4 1372.2 5.7648 17.742-8.8712 2.8825"/>
<g id="use5492" transform="matrix(5.7649 17.742 -17.742 5.7649 2025.4 1390.9)">
<path id="path7790" d="m0-1v1h0.5" transform="matrix(.95106 .30902 -.30902 .95106 -.30902 -.048943)"/>
<use id="use7792" xlink:href="#t" transform="scale(-1,1)" height="100%" width="100%" y="0" x="0"/>
</g>
<g id="use5494" transform="matrix(5.7649 -17.742 17.742 5.7649 2025.4 1390.9)">
<path id="path7796" d="m0-1v1h0.5" transform="matrix(.95106 .30902 -.30902 .95106 -.30902 -.048943)"/>
<use id="use7798" xlink:href="#t" transform="scale(-1,1)" height="100%" width="100%" y="0" x="0"/>
</g>
<g id="use5496" transform="matrix(-15.093 10.965 -10.965 -15.093 2025.4 1390.9)">
<path id="path7802" d="m0-1v1h0.5" transform="matrix(.95106 .30902 -.30902 .95106 -.30902 -.048943)"/>
<use id="use7804" xlink:href="#t" transform="scale(-1,1)" height="100%" width="100%" y="0" x="0"/>
</g>
<g id="use5498" transform="matrix(-15.093 -10.965 10.965 -15.093 2025.4 1390.9)">
<path id="path7808" d="m0-1v1h0.5" transform="matrix(.95106 .30902 -.30902 .95106 -.30902 -.048943)"/>
<use id="use7810" xlink:href="#t" transform="scale(-1,1)" height="100%" width="100%" y="0" x="0"/>
</g>
<path id="path5552" d="m1929.4 1392.3-4.6119 14.194 7.097 2.306"/>
<path id="use5554" d="m1929.4 1392.3 4.6119 14.194-7.097 2.306"/>
<g id="use5556" transform="matrix(4.6119 14.194 -14.194 4.6119 1929.4 1407.2)">
<path id="path7764" d="m0-1v1h0.5" transform="matrix(.95106 .30902 -.30902 .95106 -.30902 -.048943)"/>
<use id="use7766" xlink:href="#t" transform="scale(-1,1)" height="100%" width="100%" y="0" x="0"/>
</g>
<g id="use5558" transform="matrix(4.6119 -14.194 14.194 4.6119 1929.4 1407.2)">
<path id="path7770" d="m0-1v1h0.5" transform="matrix(.95106 .30902 -.30902 .95106 -.30902 -.048943)"/>
<use id="use7772" xlink:href="#t" transform="scale(-1,1)" height="100%" width="100%" y="0" x="0"/>
</g>
<g id="use5560" transform="matrix(-12.074 8.7723 -8.7723 -12.074 1929.4 1407.2)">
<path id="path7776" d="m0-1v1h0.5" transform="matrix(.95106 .30902 -.30902 .95106 -.30902 -.048943)"/>
<use id="use7778" xlink:href="#t" transform="scale(-1,1)" height="100%" width="100%" y="0" x="0"/>
</g>
<g id="use5562" transform="matrix(-12.074 -8.7723 8.7723 -12.074 1929.4 1407.2)">
<path id="path7782" d="m0-1v1h0.5" transform="matrix(.95106 .30902 -.30902 .95106 -.30902 -.048943)"/>
<use id="use7784" xlink:href="#t" transform="scale(-1,1)" height="100%" width="100%" y="0" x="0"/>
</g>
<path id="path5776" d="m1471 1122.1-5.7648 17.742 8.8712 2.8824"/>
<path id="use5778" d="m1471 1122.1 5.7649 17.742-8.8712 2.8824"/>
<g id="use5780" transform="matrix(5.7649 17.742 -17.742 5.7649 1471 1140.7)">
<path id="path7738" d="m0-1v1h0.5" transform="matrix(.95106 .30902 -.30902 .95106 -.30902 -.048943)"/>
<use id="use7740" xlink:href="#t" transform="scale(-1,1)" height="100%" width="100%" y="0" x="0"/>
</g>
<g id="use5782" transform="matrix(5.7649 -17.742 17.742 5.7649 1471 1140.7)">
<path id="path7744" d="m0-1v1h0.5" transform="matrix(.95106 .30902 -.30902 .95106 -.30902 -.048943)"/>
<use id="use7746" xlink:href="#t" transform="scale(-1,1)" height="100%" width="100%" y="0" x="0"/>
</g>
<g id="use5784" transform="matrix(-15.093 10.965 -10.965 -15.093 1471 1140.7)">
<path id="path7750" d="m0-1v1h0.5" transform="matrix(.95106 .30902 -.30902 .95106 -.30902 -.048943)"/>
<use id="use7752" xlink:href="#t" transform="scale(-1,1)" height="100%" width="100%" y="0" x="0"/>
</g>
<g id="use5786" transform="matrix(-15.093 -10.965 10.965 -15.093 1471 1140.7)">
<path id="path7756" d="m0-1v1h0.5" transform="matrix(.95106 .30902 -.30902 .95106 -.30902 -.048943)"/>
<use id="use7758" xlink:href="#t" transform="scale(-1,1)" height="100%" width="100%" y="0" x="0"/>
</g>
<path id="path5616" d="m1812.2 1078.2-4.6119 14.194 7.097 2.306"/>
<path id="use5618" d="m1812.2 1078.2 4.6119 14.194-7.097 2.306"/>
<g id="use5620" transform="matrix(4.6119 14.194 -14.194 4.6119 1812.2 1093.1)">
<path id="path7712" d="m0-1v1h0.5" transform="matrix(.95106 .30902 -.30902 .95106 -.30902 -.048943)"/>
<use id="use7714" xlink:href="#t" transform="scale(-1,1)" height="100%" width="100%" y="0" x="0"/>
</g>
<g id="use5622" transform="matrix(4.6119 -14.194 14.194 4.6119 1812.2 1093.1)">
<path id="path7718" d="m0-1v1h0.5" transform="matrix(.95106 .30902 -.30902 .95106 -.30902 -.048943)"/>
<use id="use7720" xlink:href="#t" transform="scale(-1,1)" height="100%" width="100%" y="0" x="0"/>
</g>
<g id="use5624" transform="matrix(-12.074 8.7723 -8.7723 -12.074 1812.2 1093.1)">
<path id="path7724" d="m0-1v1h0.5" transform="matrix(.95106 .30902 -.30902 .95106 -.30902 -.048943)"/>
<use id="use7726" xlink:href="#t" transform="scale(-1,1)" height="100%" width="100%" y="0" x="0"/>
</g>
<g id="use5626" transform="matrix(-12.074 -8.7723 8.7723 -12.074 1812.2 1093.1)">
<path id="path7730" d="m0-1v1h0.5" transform="matrix(.95106 .30902 -.30902 .95106 -.30902 -.048943)"/>
<use id="use7732" xlink:href="#t" transform="scale(-1,1)" height="100%" width="100%" y="0" x="0"/>
</g>
<path id="path5696" d="m1670 1331.5-6.9179 21.291 10.646 3.4589"/>
<path id="use5698" d="m1670 1331.5 6.9178 21.291-10.646 3.4589"/>
<g id="use5700" transform="matrix(6.9178 21.291 -21.291 6.9178 1670 1353.9)">
<path id="path7686" d="m0-1v1h0.5" transform="matrix(.95106 .30902 -.30902 .95106 -.30902 -.048943)"/>
<use id="use7688" xlink:href="#t" transform="scale(-1,1)" height="100%" width="100%" y="0" x="0"/>
</g>
<g id="use5702" transform="matrix(6.9178 -21.291 21.291 6.9178 1670 1353.9)">
<path id="path7692" d="m0-1v1h0.5" transform="matrix(.95106 .30902 -.30902 .95106 -.30902 -.048943)"/>
<use id="use7694" xlink:href="#t" transform="scale(-1,1)" height="100%" width="100%" y="0" x="0"/>
</g>
<g id="use5704" transform="matrix(-18.111 13.159 -13.159 -18.111 1670 1353.9)">
<path id="path7698" d="m0-1v1h0.5" transform="matrix(.95106 .30902 -.30902 .95106 -.30902 -.048943)"/>
<use id="use7700" xlink:href="#t" transform="scale(-1,1)" height="100%" width="100%" y="0" x="0"/>
</g>
<g id="use5706" transform="matrix(-18.111 -13.159 13.159 -18.111 1670 1353.9)">
<path id="path7704" d="m0-1v1h0.5" transform="matrix(.95106 .30902 -.30902 .95106 -.30902 -.048943)"/>
<use id="use7706" xlink:href="#t" transform="scale(-1,1)" height="100%" width="100%" y="0" x="0"/>
</g>
<path id="path5632" d="m1730.4 1231.5-5.7649 17.742 8.8712 2.8824"/>
<path id="use5634" d="m1730.4 1231.5 5.7649 17.742-8.8713 2.8824"/>
<g id="use5636" transform="matrix(5.7649 17.742 -17.742 5.7649 1730.4 1250.2)">
<path id="path7660" d="m0-1v1h0.5" transform="matrix(.95106 .30902 -.30902 .95106 -.30902 -.048943)"/>
<use id="use7662" xlink:href="#t" transform="scale(-1,1)" height="100%" width="100%" y="0" x="0"/>
</g>
<g id="use5638" transform="matrix(5.7649 -17.742 17.742 5.7649 1730.4 1250.2)">
<path id="path7666" d="m0-1v1h0.5" transform="matrix(.95106 .30902 -.30902 .95106 -.30902 -.048943)"/>
<use id="use7668" xlink:href="#t" transform="scale(-1,1)" height="100%" width="100%" y="0" x="0"/>
</g>
<g id="use5640" transform="matrix(-15.093 10.965 -10.965 -15.093 1730.4 1250.2)">
<path id="path7672" d="m0-1v1h0.5" transform="matrix(.95106 .30902 -.30902 .95106 -.30902 -.048943)"/>
<use id="use7674" xlink:href="#t" transform="scale(-1,1)" height="100%" width="100%" y="0" x="0"/>
</g>
<g id="use5642" transform="matrix(-15.093 -10.965 10.965 -15.093 1730.4 1250.2)">
<path id="path7678" d="m0-1v1h0.5" transform="matrix(.95106 .30902 -.30902 .95106 -.30902 -.048943)"/>
<use id="use7680" xlink:href="#t" transform="scale(-1,1)" height="100%" width="100%" y="0" x="0"/>
</g>
<path id="path5648" d="m1670 1184.6-5.7649 17.742 8.8712 2.8824"/>
<path id="use5650" d="m1670 1184.6 5.7648 17.742-8.8712 2.8824"/>
<g id="use5652" transform="matrix(5.7649 17.742 -17.742 5.7649 1670 1203.3)">
<path id="path7634" d="m0-1v1h0.5" transform="matrix(.95106 .30902 -.30902 .95106 -.30902 -.048943)"/>
<use id="use7636" xlink:href="#t" transform="scale(-1,1)" height="100%" width="100%" y="0" x="0"/>
</g>
<g id="use5654" transform="matrix(5.7649 -17.742 17.742 5.7649 1670 1203.3)">
<path id="path7640" d="m0-1v1h0.5" transform="matrix(.95106 .30902 -.30902 .95106 -.30902 -.048943)"/>
<use id="use7642" xlink:href="#t" transform="scale(-1,1)" height="100%" width="100%" y="0" x="0"/>
</g>
<g id="use5656" transform="matrix(-15.093 10.965 -10.965 -15.093 1670 1203.3)">
<path id="path7646" d="m0-1v1h0.5" transform="matrix(.95106 .30902 -.30902 .95106 -.30902 -.048943)"/>
<use id="use7648" xlink:href="#t" transform="scale(-1,1)" height="100%" width="100%" y="0" x="0"/>
</g>
<g id="use5658" transform="matrix(-15.093 -10.965 10.965 -15.093 1670 1203.3)">
<path id="path7652" d="m0-1v1h0.5" transform="matrix(.95106 .30902 -.30902 .95106 -.30902 -.048943)"/>
<use id="use7654" xlink:href="#t" transform="scale(-1,1)" height="100%" width="100%" y="0" x="0"/>
</g>
<path id="path5664" d="m1617.4 1235.2-4.6119 14.194 7.097 2.3059"/>
<path id="use5666" d="m1617.4 1235.2 4.6119 14.194-7.097 2.3059"/>
<g id="use5668" transform="matrix(4.6119 14.194 -14.194 4.6119 1617.4 1250.2)">
<path id="path7608" d="m0-1v1h0.5" transform="matrix(.95106 .30902 -.30902 .95106 -.30902 -.048943)"/>
<use id="use7610" xlink:href="#t" transform="scale(-1,1)" height="100%" width="100%" y="0" x="0"/>
</g>
<g id="use5670" transform="matrix(4.6119 -14.194 14.194 4.6119 1617.4 1250.2)">
<path id="path7614" d="m0-1v1h0.5" transform="matrix(.95106 .30902 -.30902 .95106 -.30902 -.048943)"/>
<use id="use7616" xlink:href="#t" transform="scale(-1,1)" height="100%" width="100%" y="0" x="0"/>
</g>
<g id="use5672" transform="matrix(-12.074 8.7723 -8.7723 -12.074 1617.4 1250.2)">
<path id="path7620" d="m0-1v1h0.5" transform="matrix(.95106 .30902 -.30902 .95106 -.30902 -.048943)"/>
<use id="use7622" xlink:href="#t" transform="scale(-1,1)" height="100%" width="100%" y="0" x="0"/>
</g>
<g id="use5674" transform="matrix(-12.074 -8.7723 8.7723 -12.074 1617.4 1250.2)">
<path id="path7626" d="m0-1v1h0.5" transform="matrix(.95106 .30902 -.30902 .95106 -.30902 -.048943)"/>
<use id="use7628" xlink:href="#t" transform="scale(-1,1)" height="100%" width="100%" y="0" x="0"/>
</g>
<path id="path5680" d="m1643.7 1275.8-3.2942 10.139 5.0692 1.6471"/>
<path id="use5682" d="m1643.7 1275.8 3.2942 10.139-5.0693 1.6471"/>
<g id="use5684" transform="matrix(3.2942 10.139 -10.139 3.2942 1643.7 1286.4)">
<path id="path7582" d="m0-1v1h0.5" transform="matrix(.95106 .30902 -.30902 .95106 -.30902 -.048943)"/>
<use id="use7584" xlink:href="#t" transform="scale(-1,1)" height="100%" width="100%" y="0" x="0"/>
</g>
<g id="use5686" transform="matrix(3.2942 -10.139 10.139 3.2942 1643.7 1286.4)">
<path id="path7588" d="m0-1v1h0.5" transform="matrix(.95106 .30902 -.30902 .95106 -.30902 -.048943)"/>
<use id="use7590" xlink:href="#t" transform="scale(-1,1)" height="100%" width="100%" y="0" x="0"/>
</g>
<g id="use5688" transform="matrix(-8.6244 6.266 -6.266 -8.6244 1643.7 1286.4)">
<path id="path7594" d="m0-1v1h0.5" transform="matrix(.95106 .30902 -.30902 .95106 -.30902 -.048943)"/>
<use id="use7596" xlink:href="#t" transform="scale(-1,1)" height="100%" width="100%" y="0" x="0"/>
</g>
<g id="use5690" transform="matrix(-8.6244 -6.266 6.266 -8.6244 1643.7 1286.4)">
<path id="path7600" d="m0-1v1h0.5" transform="matrix(.95106 .30902 -.30902 .95106 -.30902 -.048943)"/>
<use id="use7602" xlink:href="#t" transform="scale(-1,1)" height="100%" width="100%" y="0" x="0"/>
</g>
<path id="path5584" d="m1826.4 1452.5-5.7648 17.742 8.8712 2.8824"/>
<path id="use5586" d="m1826.4 1452.5 5.7649 17.742-8.8712 2.8824"/>
<g id="use5588" transform="matrix(5.7649 17.742 -17.742 5.7649 1826.4 1471.2)">
<path id="path7556" d="m0-1v1h0.5" transform="matrix(.95106 .30902 -.30902 .95106 -.30902 -.048943)"/>
<use id="use7558" xlink:href="#t" transform="scale(-1,1)" height="100%" width="100%" y="0" x="0"/>
</g>
<g id="use5590" transform="matrix(5.7649 -17.742 17.742 5.7649 1826.4 1471.2)">
<path id="path7562" d="m0-1v1h0.5" transform="matrix(.95106 .30902 -.30902 .95106 -.30902 -.048943)"/>
<use id="use7564" xlink:href="#t" transform="scale(-1,1)" height="100%" width="100%" y="0" x="0"/>
</g>
<g id="use5592" transform="matrix(-15.093 10.965 -10.965 -15.093 1826.4 1471.2)">
<path id="path7568" d="m0-1v1h0.5" transform="matrix(.95106 .30902 -.30902 .95106 -.30902 -.048943)"/>
<use id="use7570" xlink:href="#t" transform="scale(-1,1)" height="100%" width="100%" y="0" x="0"/>
</g>
<g id="use5594" transform="matrix(-15.093 -10.965 10.965 -15.093 1826.4 1471.2)">
<path id="path7574" d="m0-1v1h0.5" transform="matrix(.95106 .30902 -.30902 .95106 -.30902 -.048943)"/>
<use id="use7576" xlink:href="#t" transform="scale(-1,1)" height="100%" width="100%" y="0" x="0"/>
</g>
<path id="path5568" d="m1871.1 1410.1-4.6119 14.194 7.0969 2.3059"/>
<path id="use5570" d="m1871.1 1410.1 4.6119 14.194-7.097 2.3059"/>
<g id="use5572" transform="matrix(4.6119 14.194 -14.194 4.6119 1871.1 1425)">
<path id="path7530" d="m0-1v1h0.5" transform="matrix(.95106 .30902 -.30902 .95106 -.30902 -.048943)"/>
<use id="use7532" xlink:href="#t" transform="scale(-1,1)" height="100%" width="100%" y="0" x="0"/>
</g>
<g id="use5574" transform="matrix(4.6119 -14.194 14.194 4.6119 1871.1 1425)">
<path id="path7536" d="m0-1v1h0.5" transform="matrix(.95106 .30902 -.30902 .95106 -.30902 -.048943)"/>
<use id="use7538" xlink:href="#t" transform="scale(-1,1)" height="100%" width="100%" y="0" x="0"/>
</g>
<g id="use5576" transform="matrix(-12.074 8.7723 -8.7723 -12.074 1871.1 1425)">
<path id="path7542" d="m0-1v1h0.5" transform="matrix(.95106 .30902 -.30902 .95106 -.30902 -.048943)"/>
<use id="use7544" xlink:href="#t" transform="scale(-1,1)" height="100%" width="100%" y="0" x="0"/>
</g>
<g id="use5578" transform="matrix(-12.074 -8.7723 8.7723 -12.074 1871.1 1425)">
<path id="path7548" d="m0-1v1h0.5" transform="matrix(.95106 .30902 -.30902 .95106 -.30902 -.048943)"/>
<use id="use7550" xlink:href="#t" transform="scale(-1,1)" height="100%" width="100%" y="0" x="0"/>
</g>
<path id="path5600" d="m1785.2 1397.3-4.6119 14.194 7.097 2.306"/>
<path id="use5602" d="m1785.2 1397.3 4.6119 14.194-7.097 2.306"/>
<g id="use5604" transform="matrix(4.6119 14.194 -14.194 4.6119 1785.2 1412.2)">
<path id="path7504" d="m0-1v1h0.5" transform="matrix(.95106 .30902 -.30902 .95106 -.30902 -.048943)"/>
<use id="use7506" xlink:href="#t" transform="scale(-1,1)" height="100%" width="100%" y="0" x="0"/>
</g>
<g id="use5606" transform="matrix(4.6119 -14.194 14.194 4.6119 1785.2 1412.2)">
<path id="path7510" d="m0-1v1h0.5" transform="matrix(.95106 .30902 -.30902 .95106 -.30902 -.048943)"/>
<use id="use7512" xlink:href="#t" transform="scale(-1,1)" height="100%" width="100%" y="0" x="0"/>
</g>
<g id="use5608" transform="matrix(-12.074 8.7723 -8.7723 -12.074 1785.2 1412.2)">
<path id="path7516" d="m0-1v1h0.5" transform="matrix(.95106 .30902 -.30902 .95106 -.30902 -.048943)"/>
<use id="use7518" xlink:href="#t" transform="scale(-1,1)" height="100%" width="100%" y="0" x="0"/>
</g>
<g id="use5610" transform="matrix(-12.074 -8.7723 8.7723 -12.074 1785.2 1412.2)">
<path id="path7522" d="m0-1v1h0.5" transform="matrix(.95106 .30902 -.30902 .95106 -.30902 -.048943)"/>
<use id="use7524" xlink:href="#t" transform="scale(-1,1)" height="100%" width="100%" y="0" x="0"/>
</g>
<path id="path5728" d="m1460.4 1374.2-6.9178 21.291 10.646 3.4589"/>
<path id="use5730" d="m1460.4 1374.2 6.9179 21.291-10.646 3.4589"/>
<g id="use5732" transform="matrix(6.9178 21.291 -21.291 6.9178 1460.4 1396.6)">
<path id="path7478" d="m0-1v1h0.5" transform="matrix(.95106 .30902 -.30902 .95106 -.30902 -.048943)"/>
<use id="use7480" xlink:href="#t" transform="scale(-1,1)" height="100%" width="100%" y="0" x="0"/>
</g>
<g id="use5734" transform="matrix(6.9178 -21.291 21.291 6.9178 1460.4 1396.6)">
<path id="path7484" d="m0-1v1h0.5" transform="matrix(.95106 .30902 -.30902 .95106 -.30902 -.048943)"/>
<use id="use7486" xlink:href="#t" transform="scale(-1,1)" height="100%" width="100%" y="0" x="0"/>
</g>
<g id="use5736" transform="matrix(-18.111 13.159 -13.159 -18.111 1460.4 1396.6)">
<path id="path7490" d="m0-1v1h0.5" transform="matrix(.95106 .30902 -.30902 .95106 -.30902 -.048943)"/>
<use id="use7492" xlink:href="#t" transform="scale(-1,1)" height="100%" width="100%" y="0" x="0"/>
</g>
<g id="use5738" transform="matrix(-18.111 -13.159 13.159 -18.111 1460.4 1396.6)">
<path id="path7496" d="m0-1v1h0.5" transform="matrix(.95106 .30902 -.30902 .95106 -.30902 -.048943)"/>
<use id="use7498" xlink:href="#t" transform="scale(-1,1)" height="100%" width="100%" y="0" x="0"/>
</g>
<path id="path5712" d="m1670 1520.6-2.306 7.097 3.5485 1.153"/>
<path id="use5714" d="m1670 1520.6 2.3059 7.097-3.5485 1.153"/>
<g id="use5716" transform="matrix(2.3059 7.097 -7.097 2.3059 1670 1528)">
<path id="path7452" d="m0-1v1h0.5" transform="matrix(.95106 .30902 -.30902 .95106 -.30902 -.048943)"/>
<use id="use7454" xlink:href="#t" transform="scale(-1,1)" height="100%" width="100%" y="0" x="0"/>
</g>
<g id="use5718" transform="matrix(2.3059 -7.097 7.097 2.3059 1670 1528)">
<path id="path7458" d="m0-1v1h0.5" transform="matrix(.95106 .30902 -.30902 .95106 -.30902 -.048943)"/>
<use id="use7460" xlink:href="#t" transform="scale(-1,1)" height="100%" width="100%" y="0" x="0"/>
</g>
<g id="use5720" transform="matrix(-6.0371 4.3862 -4.3862 -6.0371 1670 1528)">
<path id="path7464" d="m0-1v1h0.5" transform="matrix(.95106 .30902 -.30902 .95106 -.30902 -.048943)"/>
<use id="use7466" xlink:href="#t" transform="scale(-1,1)" height="100%" width="100%" y="0" x="0"/>
</g>
<g id="use5722" transform="matrix(-6.0371 -4.3862 4.3862 -6.0371 1670 1528)">
<path id="path7470" d="m0-1v1h0.5" transform="matrix(.95106 .30902 -.30902 .95106 -.30902 -.048943)"/>
<use id="use7472" xlink:href="#t" transform="scale(-1,1)" height="100%" width="100%" y="0" x="0"/>
</g>
</g>
</g>
</g>
</g>
</svg>
